<svg xmlns="http://www.w3.org/2000/svg" width="277.923" height="276.214" viewBox="0 0 277.923 276.214">
  <g id="Groupe_45" transform="translate(-173.162 -123.251)" opacity="0.409">
    <path id="Tracé_761" d="M312.2,387.7l-28-14.8-31.6.1-17.9-26.1-28.1-14.6-3.7-31.4-18-26,.1-.4,11.1-29.1L192.2,214l23.7-20.9L227,163.5l30.7-7.5,23.6-21,30.7,7.7,30.7-7.7.3.3,23.3,20.8,30.7,7.5,11.1,29.6L432,214v.4l-3.8,31,11.3,29.5-18,26-3.7,31.4-28,14.6L371.7,373l-31.6-.1Zm-27.6-16.4,27.6,14.6L340,371.3l31,.1,17.8-25.8,27.5-14.3,3.8-31.1,17.7-25.5-11.2-29.1v-.2l3.8-30.8-23.5-20.8-10.9-29-30.5-7.5-23.1-20.6-30.2,7.5-30.3-7.6-23.5,20.8-30.1,7.3L217.2,194,194,214.6l3.8,31-.1.2-11.1,28.9,17.8,25.8,3.6,30.8,27.8,14.6,17.5,25.6Z" fill="#bababa" stroke="#000" stroke-miterlimit="10" stroke-width="1"/>
    <g id="Groupe_40" transform="translate(56.776 49.383)">
      <path id="Tracé_762" d="M292.8,144.4c.1-.5,1.7-.4,1.1-1.5-1.2,0-1.3,1-2.6.6.1.3-.3.2-.2.6A1.747,1.747,0,0,0,292.8,144.4Z" fill="#bababa" stroke="#bababa" stroke-linecap="round" stroke-linejoin="round" stroke-width="0.652"/>
      <path id="Tracé_763" d="M178.6,153.9a2.622,2.622,0,0,0,.2-1.5c.6,0,.4-.4.2-.7-.3-.1-.3.2-.7.1-.2.2,0,.7-.5.6a6.6,6.6,0,0,1,.1,1.4C178.4,153.7,178.3,154,178.6,153.9Z" fill="#bababa" stroke="#bababa" stroke-linecap="round" stroke-linejoin="round" stroke-width="0.652"/>
      <path id="Tracé_764" d="M217.2,156.3c-.3.1-.3-.2-.7-.1-.5-.7-.5-1.8-1.1-2.9h-.6c-.6,1.2.3,2.3.1,3.5.5.2.5.8,1,.3,1.1.6.2,1.8,1.1,2.7.9,0,.5-.6.8-1.1a2.292,2.292,0,0,1-.2-1.8C217.1,157,217.5,156.6,217.2,156.3Z" fill="#bababa" stroke="#bababa" stroke-linecap="round" stroke-linejoin="round" stroke-width="0.652"/>
      <path id="Tracé_765" d="M277.8,155.9a12.251,12.251,0,0,0-1.9-.2c-.2-.6-1.3-1.1-1.7-.5.5,0,0,.3,0,.5a.965.965,0,0,0,.8.2c-.2.4.7.6,1.2.6.4.6,1.1.7,1.3,1.7.2.1.5.1.6.3-.3.1.1.4,0,.7a.965.965,0,0,1-.8.2c-.5-.6-.5-1-1.2-1.3-.9.6-.3,1.1,0,1.8.7.4,4.2,1.2,3.5.1.6,0,.4-.7,1.1-.6.8,1.1,2.4-.4,1.6-1.3-1-.3-2.8-.6-3.5-1.2-.1-.1-.1-.5-.2-.6C278.2,156.2,277.2,156.2,277.8,155.9Z" fill="#bababa" stroke="#bababa" stroke-linecap="round" stroke-linejoin="round" stroke-width="0.652"/>
      <path id="Tracé_766" d="M240.5,155.4c.4-.1,1.1.1,1.4-.1C241.5,155.4,240.8,155.1,240.5,155.4Z" fill="#bababa" stroke="#bababa" stroke-linecap="round" stroke-linejoin="round" stroke-width="0.652"/>
      <path id="Tracé_767" d="M179.1,162.9a1.7,1.7,0,0,0,.6-.6c.9,0,1.1.6,1.4,1.3a8.674,8.674,0,0,0,3.1,1c0-.4.3-.3.6-.6a6.646,6.646,0,0,0-.6-3.4c.5,0,1.5.2,1,.5,1.8.1,3.5,1,4.8-.1,0-.7.2-.8-.2-1.1-.4-.2-.6.2-1,.2-.7,0-.7-.4-1-.6-.4-.2-1.4,0-1.1-.6-.5-.1-1.4-.1-1.1-.6-.5,0-.6-.4-.8-.6-.7-.8-2.7,0-3.7-.1h.2C179.2,158.7,176.7,160.8,179.1,162.9Zm2.7-3.6a3.379,3.379,0,0,1,1.9.9c-.2.7-.8.3-1.6.5-.1-.3-.2-.6-.6-.7C181.7,159.8,181.9,159.7,181.8,159.3Z" fill="#bababa" stroke="#bababa" stroke-linecap="round" stroke-linejoin="round" stroke-width="0.652"/>
      <path id="Tracé_768" d="M218.3,163.4c.2-.6,1-2,0-2.4,0,.2-.4.1-.3.3.1.7-.3,1-.5,1.7C217.9,163.1,217.9,163.4,218.3,163.4Z" fill="#bababa" stroke="#bababa" stroke-linecap="round" stroke-linejoin="round" stroke-width="0.652"/>
      <path id="Tracé_769" d="M230,163.7c-.2.1-.7-.1-.8.1-.4,2.1,0,5.8-1.1,7.7-.5,4.6-2,6.3-4,10,1.3.9,1.8-1,2.4-1.8a1.156,1.156,0,0,0,.9-1.4,1.356,1.356,0,0,0,.7-1.1,2.463,2.463,0,0,0,.9-1.9c.4.1.3-.3.5-.5-.1,0-.2,0-.2-.1,1.2-1.5.3-3.9.8-5.7h.2a22.747,22.747,0,0,0-.1-2.4C230.1,165.5,230.6,164.6,230,163.7Z" fill="#bababa" stroke="#bababa" stroke-linecap="round" stroke-linejoin="round" stroke-width="0.652"/>
      <path id="Tracé_770" d="M175.2,172.9a3.36,3.36,0,0,0,1.6,1c-.1,0-.2,0-.2.1,1.9-.2,1.7-1.6,1.5-2.7-2.9-1.2.8-2.8,1.6-4.3-.5-.2-.1-.5-.5-.8-1.1.1-2.2.8-2.3,1.5-1.6,1.1-3.1,3.5-1.6,4.9A.367.367,0,0,1,175.2,172.9Z" fill="#bababa" stroke="#bababa" stroke-linecap="round" stroke-linejoin="round" stroke-width="0.652"/>
      <path id="Tracé_771" d="M163.7,180.9c.1,0,.2-.2.2-.3-.6-.2-.4-.6-.9-1-2.2.2-1.5,3.5-4.7,3.3a11.51,11.51,0,0,1-1.4,1.7,9.15,9.15,0,0,0,0,3.3c.4.4,1.4.7,1.4,1.1.4.1,1.6.1.8.3.3,0,1.4.1,1.1-.1-.1,0-.3,0-.3-.1.8,0,2.2-.3,1.9-.6a3.494,3.494,0,0,0,1.3-.5,12.806,12.806,0,0,0,1.1-2.4c0-.2-.2-.2-.2-.5,0-.5.2-1.2.2-1.6C163.4,182.8,164.3,181.7,163.7,180.9Zm-1.8,5.4c-.5.6-1.4,1.8-2.6.8,0-.8-.6-1.4.1-2.3a4.514,4.514,0,0,1,2.5.7C161.8,185.9,161.7,185.9,161.9,186.3Z" fill="#bababa" stroke="#bababa" stroke-linecap="round" stroke-linejoin="round" stroke-width="0.652"/>
      <path id="Tracé_772" d="M214.5,182.8c-1.5,2.7-2,6.4-3.8,8.7,1.4.5,1.9-1.1,2.5-2.2a19.964,19.964,0,0,0,1.9-6.3C214.8,183.1,214.9,182.7,214.5,182.8Z" fill="#bababa" stroke="#bababa" stroke-linecap="round" stroke-linejoin="round" stroke-width="0.652"/>
      <path id="Tracé_773" d="M213.8,191.2a5.387,5.387,0,0,0-.7,1.3c-.1.2-.6.5-.7.7s.1.3,0,.5c-.2.4-.8.7-1,.9-.4.5-.7,1.2-1.1,1.7-.6.6-1.2.7-1.2,1.4a1.02,1.02,0,0,0,.9.2c.6-.9,2-1.7,2.3-2.7,1.5-.8,2-2.9,2.3-3.8C214.2,191.1,214.1,191.3,213.8,191.2Z" fill="#bababa" stroke="#bababa" stroke-linecap="round" stroke-linejoin="round" stroke-width="0.652"/>
      <path id="Tracé_774" d="M213.6,195.6a7.561,7.561,0,0,0-1.9,2.1,22.069,22.069,0,0,1-1.2,2.7c-.8.9-2.9,1.1-1.5,2.2.8-.5,1.6-1,2.4-1.6a.367.367,0,0,0-.1-.3c.6,0,.5-.8,1-.8,0-1.5,1.1-2.3,1.7-3.9C213.6,196,213.8,195.6,213.6,195.6Z" fill="#bababa" stroke="#bababa" stroke-linecap="round" stroke-linejoin="round" stroke-width="0.652"/>
      <path id="Tracé_775" d="M212.6,202.3c.1-.1.3.1.3,0,.6-.5.5-1.1.6-1.6a.661.661,0,0,0-.6-.1,6.772,6.772,0,0,1-4,3.6c-.3.7-.9,1-.8,1.8,1,.7,1.8-1,2.7-1.8a7.616,7.616,0,0,0,1.6-1.4C212.6,202.7,212.6,202.5,212.6,202.3Z" fill="#bababa" stroke="#bababa" stroke-linecap="round" stroke-linejoin="round" stroke-width="0.652"/>
      <path id="Tracé_776" d="M262,205.6c.5.2.3.6,1,.3a9.832,9.832,0,0,1,.5-1.6C262.7,203.8,262.1,204.9,262,205.6Z" fill="#bababa" stroke="#bababa" stroke-linecap="round" stroke-linejoin="round" stroke-width="0.652"/>
      <path id="Tracé_777" d="M239.5,205.1c-1.5.2-1.6,2-1,2.8.4,0,.9.3.7.6,2.2.4.1-1.6.2-2.5C239.4,205.9,239.7,205.4,239.5,205.1Z" fill="#bababa" stroke="#bababa" stroke-linecap="round" stroke-linejoin="round" stroke-width="0.652"/>
      <path id="Tracé_778" d="M207.9,209.2c1.7-.4,2.5-1.6,4.2-2.1,0-.4.3-.5.3-.8-1,0-1.7,1.2-3.1,1.3C208.9,207.7,207.3,208.3,207.9,209.2Z" fill="#bababa" stroke="#bababa" stroke-linecap="round" stroke-linejoin="round" stroke-width="0.652"/>
      <path id="Tracé_779" d="M261.7,209.2c.7.1,1-.2.8-.8C261.9,208.1,261.7,208.6,261.7,209.2Z" fill="#bababa" stroke="#bababa" stroke-linecap="round" stroke-linejoin="round" stroke-width="0.652"/>
      <path id="Tracé_780" d="M260.8,212.8c.8.7,1.5-.2,1.6-1-.2-.2-.5-.2-.8-.3A2.223,2.223,0,0,0,260.8,212.8Z" fill="#bababa" stroke="#bababa" stroke-linecap="round" stroke-linejoin="round" stroke-width="0.652"/>
      <path id="Tracé_781" d="M224.3,213.7c-.4.1-1.1-.1-1.3.1C223.4,213.8,224.1,214,224.3,213.7Z" fill="#bababa" stroke="#bababa" stroke-linecap="round" stroke-linejoin="round" stroke-width="0.652"/>
      <path id="Tracé_782" d="M256.7,253.3c.2,0,.2.1.5.1.4-1.3-.1-2.6-.3-4.1H256C255.7,250.9,256.5,251.9,256.7,253.3Z" fill="#bababa" stroke="#bababa" stroke-linecap="round" stroke-linejoin="round" stroke-width="0.652"/>
      <path id="Tracé_783" d="M277.9,253.6a2.817,2.817,0,0,0,.3-2.2C277.1,251.1,276.5,253.5,277.9,253.6Z" fill="#bababa" stroke="#bababa" stroke-linecap="round" stroke-linejoin="round" stroke-width="0.652"/>
      <path id="Tracé_784" d="M229.1,269.6a35.251,35.251,0,0,0,1.6-3.8c-.1-.1-.1-1,.2-1a25.691,25.691,0,0,0,.7-4c-.9-.8-.3-2.7-1.9-3.1.1-.3-.2-.3-.1-.6-1.4-.7-2,.2-2.2,1.2.5,0,.2.2.2.6.6.1.3.7.4,1.1,0,.1.3.1.4.2a10.653,10.653,0,0,1-1.1,8.7c-1.1.6-1.3,2-2.5,2.5a6.1,6.1,0,0,0-2.8,1.9,4,4,0,0,0-1.9.2c-.3.5-2.5.2-2.8,1.1.3.1-.1.2,0,.5,1.7,1.7,3-.6,5.2-.3.5-.6,2.6-1,2.2-1.4.9,0,1.1-.7,1.8-.9C227.1,271.6,228.2,270.7,229.1,269.6Z" fill="#bababa" stroke="#bababa" stroke-linecap="round" stroke-linejoin="round" stroke-width="0.652"/>
      <path id="Tracé_785" d="M277.9,259.6c-.9,1.1-1.7,3.3-1,4.8.9.2.3.5,1.4.5,1-1,.8-2.1.9-3.6.8-1.1,1.6-2.2,2.3-3.3C280.4,257.1,278.8,258.5,277.9,259.6Z" fill="#bababa" stroke="#bababa" stroke-linecap="round" stroke-linejoin="round" stroke-width="0.652"/>
      <path id="Tracé_786" d="M202.5,269.8c.1-.5-.3-.6-.8-.6-.6-1.1-2.2-2.1-2.6-3.5-.1-.2-.4,0-.5-.2,0-.2-.1-.2-.1-.5-.7,0-.5-.8-.6-1.1a9.331,9.331,0,0,1-.7-1.5c.1-1-1.3-2.5-.6-3.3-.2-.3-.7-.2-1.1-.2-.6.9-.4,1.6-.7,2.4.7,2,1.4,5.2,3,6.4.2.8,1.1,1.5,1.1,2.2,1.8,1,3.1,3.2,6,3.4.2-.5.8-.5,1-.9a1.689,1.689,0,0,0-.3-1C204.1,271.4,203.7,270.2,202.5,269.8Z" fill="#bababa" stroke="#bababa" stroke-linecap="round" stroke-linejoin="round" stroke-width="0.652"/>
      <path id="Tracé_787" d="M308.3,305.5c-.4-1.2-1.5-2.7-1.6-3.5a.764.764,0,0,1-.5-.2c-.2-1.8-1.3-2.4-1.9-4a.764.764,0,0,1-.5-.2c0-.7-1.2-1.1-1.9-1.5-.6.4-.1,1.6.5,1.8a.367.367,0,0,1-.1.3,8.62,8.62,0,0,1,2.5,4.2c2.3,2.6,3.8,8,1,10.8-.4.1-1.6.3-1.1.6-1,0-2.1-.1-2.2.8a1.344,1.344,0,0,1,.7.6,3.3,3.3,0,0,0,3.2-1.3c2.8-1.4,2.1-4.9,2.2-7.7C308,306,308.4,305.7,308.3,305.5Z" fill="#bababa" stroke="#bababa" stroke-linecap="round" stroke-linejoin="round" stroke-width="0.652"/>
      <path id="Tracé_788" d="M319,311.1c-1.2-2.9-.9-6-3-8.1h-.5c-.7,1-.1,1.8,0,3.1,1.7,1.4.8,3.4,1.4,5.5a.443.443,0,0,1,.6.3,45.327,45.327,0,0,1,.3,5.2l1.5-2.2V314A7.2,7.2,0,0,1,319,311.1Z" fill="#bababa" stroke="#bababa" stroke-linecap="round" stroke-linejoin="round" stroke-width="0.652"/>
      <path id="Tracé_789" d="M208.9,309.2c-1,0-1.3-.8-2.3-.8a1.794,1.794,0,0,1-.5.7c.3,0,.2.3.2.6,1.8,1.1,1.5,3.1,1.1,4.9.4-.1.3.4.7.3s.4-.5.8-.6c-.2-.6.2-.5.1-1.1,1.2-1.1.1-2.3.1-3.4C208.9,309.9,208.9,309.6,208.9,309.2Z" fill="#bababa" stroke="#bababa" stroke-linecap="round" stroke-linejoin="round" stroke-width="0.652"/>
      <path id="Tracé_790" d="M359.9,271c-.1.1.1.3.1.3s-.3.1-.3.2a22.443,22.443,0,0,0-1.8,6.1c.1,0,.2.1.3.2-.1,1.6.2,3.2.2,4.7l1.3-.7,1.6-13.3a4.179,4.179,0,0,0-.4,1C360.6,270.2,360.1,270.5,359.9,271Z" fill="#bababa" stroke="#bababa" stroke-linecap="round" stroke-linejoin="round" stroke-width="0.652"/>
      <path id="Tracé_791" d="M285.6,319.9c-.3-1.4-1.8-3-2.6-4.1-1.1-.1-2.7-.4-3.1.5-1,0-2.5.1-2.7.5a3.543,3.543,0,0,0-2.5,3.6,4.938,4.938,0,0,0-1.6,3.2c-1-.6-.8-1.1-2.1-1.1a6.311,6.311,0,0,0-.8-2.3c-.1-.2-.4-.1-.5-.2-.3-.3-.2-.8-.5-1-.1-.2-.5,0-.6-.1-.4-.3-.3-.7-.7-.8a2.133,2.133,0,0,1-.8,0c.7.2-.3-.6-.8-.2-.2.2-1.1.3-.3.1-2.3-.8-5.1.2-5.7,1.7-.7.4-.7.7-1.4,1-1.2,2.5-3.6,4.9-5,8.3a12.875,12.875,0,0,0-2.2,3c-.2,0-.3.2-.6.2a11.51,11.51,0,0,1-1.4,1.7l1.6.8a19.224,19.224,0,0,1,1.3-1.7c.9-1.1,1.3-2.6,2.6-3.5V329c2.4-2.6,4.9-5.8,5.7-9.1,1.1-.2,1.8-.1,2.6-1,1.6-.2,2.3.5,3.5.6.8,1.2,2.6,2.4,3,4.1,1.8.1,1.5,1.9,3.1,2-.1.2,0,.2,0,.3a3.591,3.591,0,0,1,1,.7l1.8-1-.1-.1c-.5,0-1-.2-.8-.6a1.442,1.442,0,0,1-1.1-.7c.1-1.5,1.7-2.5,1.8-3.9.6-.8.8-2.5,2.7-2.5.3-.4,2.5-.6,3.3-.2-.4-.2.5.4.6.6.3.4.5,1.2.8,1.6.3.3,1.2.6.9,1.1.5.2.5.9,1.3.9v.1h2.1A7.875,7.875,0,0,0,285.6,319.9Z" fill="#bababa" stroke="#bababa" stroke-linecap="round" stroke-linejoin="round" stroke-width="0.652"/>
      <path id="Tracé_792" d="M371.3,237.5c-.4-.1-1.6-.2-1-.6a3.839,3.839,0,0,1-1.8-.9l.1-.2a4.674,4.674,0,0,0-1.9-.6l.1-.2c-.5-.2-1.3.2-1.3-.6-.6.1-.8-.2-1.4-.1-.7-.9-3.1-.7-3.4-1.6-.6,0-1.6-.1-1.4-.6a46.305,46.305,0,0,0-6.5-1c.1,0,.8,0,.5-.1-.3-.3-1.2.2-1.1.2-.7,0-1.2-.4-1.9-.5-.3,0-.6.3-.9.2-2.5-.5-6-.4-8.5-1,.1,0,.2,0,.2-.1-1.6,0-3.2-.5-4.8-.3a5.579,5.579,0,0,0-2.7-1c-.9-.6-1.6-1.4-3.1-1.5-.3-.5-1.8-1.1-2.3-1.8-.5-1.7.6-2.5.3-4.1.2-1.9,1-4.1,1-6.3q-.3-.15-.3-.3c.1-1.1.7-2.5,2.4-1.9a.6.6,0,0,0-.4.1c1,.1,2.3-.1,2.5-.5,0,.1.5.3.5.1.6-.4,3,.1,3.3-.7,2.2.3,3-1.1,2.7-2.4-1.3-1.5-1.4-4.1-2.3-6.3a33.994,33.994,0,0,1-.6-4.6c-1-1.5-.4-3.2-.8-5-.7-1.3,0-2.3-1.3-3.3a2.968,2.968,0,0,0-.1-1.6c-.4,0-.8,0-.9-.2.2-.3.2-.6.9-.7,0-.5-.4-.7-.3-1.3.5.1.1-.3.3-.3,1.4-.5,2.1-2.2,2.5-3.1,1.2-.2,1.2-2,1.8-2.7a4.477,4.477,0,0,1,.4-2,10.169,10.169,0,0,0-2.6-4.1c.3-.4-.2-.3-.5-.7-.5-.9-2.5-1.4-1.7-1.5-.3-.1-1.7-.1-1.8-.5,0,.1.4-.1.4-.1-.5-.2-1.4-.1-1.8-.5.1.1.4-.1.3-.1-.8-.3-2.2-.1-2.3-.6-1.2,0-2,.4-3.3.2-.2-.7-3.6-1.2-4.1-.2a8.447,8.447,0,0,0-1.7.5c.1,0,.2,0,.2.1-.4,0-1.1.1-.6-.2-2-.2-5.1.6-6-1.1-.3-.1-.7,0-.7-.5,1.3-.8,1.4-2.6,2.6-3.5a13.017,13.017,0,0,1,1.7-.8.367.367,0,0,0-.1-.3.569.569,0,0,0,.7-.4v-.1c.5.1.3-.3.8-.2,1.5-2.3,4.3-3.5,5.5-5.9a7.472,7.472,0,0,0,2.5-2.5,42.525,42.525,0,0,0,4.8-4.7c.1-.1.7-.6.6-1h.3c-.2-.8.6-.6.3-1.1.3,0,.4-.2.6-.3a15.1,15.1,0,0,1,1.8-2.6c.5-.7,1.3-2.2,1-2.6.7,0,.1-.6.2-1.1-.8.1-1.4-.3-1.9-.1.1.7-1,.6-1.6.8.1,0,.3.1.2.1a21.018,21.018,0,0,1-2.6,1.3c-.7.4-1.3,1.3-2.5,1.7-1.9,1.8-5.1,4-6.9,5.8-.4-.1-.3.3-.7.2-1.3,1.7-3.6,2.6-4.6,4.2-1.7.8-2.7,2.3-4.2,3.3a22.138,22.138,0,0,1-2.7,2.5c-2.4,2.3-5.1,5.9-9.2,6.7a7.974,7.974,0,0,1-.8,1.6c-1-.2-1.5.5-2.3.2.3-.3-.3-.5-.5-.7-.2-2.3-1.4-3.6-2.5-5.5-.4.1-.7-.3-.5-.5-1.3-.2-1.9-1.2-3.2-1.5.4-.5-1.3-.4-.9-.9a17.1,17.1,0,0,1-3-.9,1.344,1.344,0,0,1,.9-1.8h0c.4.1.8.1.8.6.5.2,2.2.1,1.8.5a3.812,3.812,0,0,0,1.5.1c0-.5.5-.3.5-.6,2.3.4,3.7-.5,4.2-1.9a.854.854,0,0,0-.7,0c.1-.4-.2-.4-.3-.6.4-.1.3-.5.6-1-.9-.2-.3-1.4-1.1-1.6a23.07,23.07,0,0,0-1.4,1.9c.6,1.9-2.2,2.5-4.3,1.9a3.714,3.714,0,0,1,2-3.3c-.3-.9.8-1.2.7-2.3.7-.5.1-1.6.9-1.9.6-.1.9.2,1.3,0-.1-.5.3-.9.1-1.1.7.1.3-.8.8-.9a1.588,1.588,0,0,1,.6,2c0,.7.5.7.9,1.1.4.8-.4,2.3-.3,2.7.1.3.7.6.8.9.2.6-.1.9-.1,1.6,1,0,.9-.9,1.3-1.2.7,0,.8-.6,1.4-.8.6-2.2,1.1-3.4,3-4.4,2.1-2,3.3-5.2,4.1-7.6-.1,0-.2,0-.2-.1a14.239,14.239,0,0,0,1.7-5.4c-.1-1.8.4-3.3-.9-4.8a4.306,4.306,0,0,0-.5-3.1c-.1-3.2-2.4-4.8-3.5-7.9-.8-.2-.6-1.2-1.7-1.4-.3-.8-1.2-1-1.5-1.8h-.5a5.546,5.546,0,0,0-3.2-1.9c.2-.2,0-.2-.1-.5-.5,0-.6-.2-1.1-.1-.4-1.1-3.2-1.1-3.8-1.7a24.209,24.209,0,0,0-12.5,1.2,22.859,22.859,0,0,0-6.5,3.1c-.3.6-.8.6-1.4,1.1-.1.1-.1.3-.2.5a11.411,11.411,0,0,0-1.1,1.1c-.1.1-.4.1-.5.2-.3.3-.6,1.2-1,1.7-.2.3-.6.4-.8.7-.1.1.1.4,0,.5s-.4.1-.5.2.1.3.1.3a1.425,1.425,0,0,1-.4.2c-.2.3-.2.8-.4,1.1,0,.1-.3,0-.3.1a14.241,14.241,0,0,0-.5,1.6,4.372,4.372,0,0,1-.6,1c0,.3-.2.3-.2.6a37.224,37.224,0,0,0-.8,5.7c.6,1.8,1.2,4.1-.5,5.9.7,2,2.5,3.6,2.5,5.8.3,0,.5.1.5.6,3,1.3,1.3,5.8-.6,7.2-.3.4-1.3.2-1.8.5-.4.7-2.8.9-3.6,1.4.1,0,.2,0,.2.1-2.3.2-3.2,1.4-5.5,1.6-2.8,1.9-4.4,4.2-6.1,6.5a1.974,1.974,0,0,1-.6,1.4c.3.4-.5,1.1-.2,1.6-1.2,1.5-1.8,3.2-3.1,4.4h-.3c-.6,1.4-1.8,1.9-3.1,2.7-.8.5-1.3,1.8-2.4,2.4a1.809,1.809,0,0,1-.7-1.7c-.1,0-.3-.1-.3-.2a2.492,2.492,0,0,0-.3-1.7c-1.3-.2-.6,1-.8,1.8.2,0,.3.1.3.2a23.269,23.269,0,0,1-.9,9.8c-.3,0-.5,0-.6-.2.3-1.8.6-4.1-.9-5.2-.8.5-.3,1.4-.3,1.8a25.488,25.488,0,0,0-.2,3.9c-.9,2.8-1.2,4.3-3,6.4.6.4.3.9.5,1.7.1,0,.2,0,.2.1,2.6-.7,4-3,5-4.7-.2-.6.5-1,.3-1.6.5-.5.8-1.6,1.3-2.2a.749.749,0,0,1,.5.1c-.2.5,0,.6-.2.9a11.837,11.837,0,0,1-.5,2.8,3.638,3.638,0,0,0-1.4,1.6c.7,1.5-.4,3.3-1.2,4.2-.3,1.2-1,2.3-1.3,3.6,0,0,.2,0,.2.1,0,1.4-1.3,3.1-.9,4.6a7.325,7.325,0,0,0,.2,4.4,6.136,6.136,0,0,1,1.9,1.7c1.8.1.9-1.8.8-2.4a7.72,7.72,0,0,1,.2-1.5c0-.6-.3-1.1-.2-1.6.1-.7.9-1.9.9-2.8-1.2-.2-1,1.3-2.2,1.7-.4-1.6.7-2.7.5-4.3a.367.367,0,0,0,.3-.1c-.2-1.1,1.2-2.6,2-3.3a.764.764,0,0,1,.5-.2c1.3-.1.7,1.1.8,1.7.1.8.6,1.4.2,2.1.2,0,.3.1.3.2.1,1.7-.4,3.2-.1,4.7.8.3.9,1,.8,1.8,1.5.7,1.4,1.8,2.4,3,1.4.4,1.2,1.8,2.2,2.6-1.9,1.8-7.4,1-11.1,1.4,0-.1.2-.2-.1-.2a1.389,1.389,0,0,1-1.1.2c0-.1.2-.2-.1-.2s.3.3-.2.2c.2-.3-.7-.3-.2,0-3.8-.1-6.8-.5-10.8-.3.2-.4-.5,0-.3-.5-2.4-.1-7.5-.1-9.6-.3-.3,0-1.6.2-1-.2-1.7-.6-3.8.3-5-.5a.349.349,0,0,0,.2-.1c-1.3-.2-2.1.1-3.2-.5.1,0,.2,0,.2-.1a26.987,26.987,0,0,1-4.1-.7c-1-.3-2.2,0-3-.3a.349.349,0,0,0,.2-.1,5.833,5.833,0,0,0-2.3-.3c-.1-.4-.4-.5-.7-.7a5.121,5.121,0,0,1,.8-3.8c0-1.8,1.3-3.6,1.9-5.3,1.3-.8,1.5-2.4,2.6-3.5-.1,0-.2,0-.2-.1a.9.9,0,0,0,.5-.1,24.371,24.371,0,0,1,3.9-6.1c.1-1.4,1-2,1-3a1.709,1.709,0,0,0,.7-1.3c.5.1.5-.4.7-.6.3,0,.3-.3.7-.2.9-1.7,3-3.7,2.7-6a3.986,3.986,0,0,0,.7-2.4c.1,0,.2-.1.3-.1.2-2-.4-4.1-.7-6.2a.821.821,0,0,1,.7-.1,3.887,3.887,0,0,1,.2,1.5c.4,0,.4.3.8.2.9-1.3-.4-2.5.3-3.6h.5a30.983,30.983,0,0,1,.7,3.8c0,2.3-1.5,5.1-1.1,7.1h.7c.4-.4.2-.6.7-1h.4c-.1,2.9-1.5,4.7-1.3,7.7h.6a31.206,31.206,0,0,0,1.9-5.9c0-.1-.2-.1-.2-.2.7-.5.1-1.7.8-2.2.8.3.5,1.5.8,2.2h.7c1.1-1.4.5-4.3,1.9-5.7.5.1.8.3.6.8a4.054,4.054,0,0,0,.9.5,4.629,4.629,0,0,1,4-1.5c-.9,2.2-2.5,4.2-3.5,6a50.4,50.4,0,0,1-1.3,5.7c.1,0,.2,0,.2.1-.6.5-.3,2.2-.7,2.8,0,.2.2.1.2.2-.5.6.4,1.5.3,2.2,1.3.9,0,2.8.1,4.2.1.6.4,1.1.5,1.6a8.637,8.637,0,0,0-.1,1.5,8.636,8.636,0,0,0,1,1.6s-.2.6.2.6c0,1.2,1.1,1.5,1.7,2.7,1.2,0,.9-.8,1-1.6l-.6-.9c-.3-1.1.4-2.2.6-3.3,0-.3-.1-.6-.1-.9.1-1.3,1-2.5.9-3.6a3.1,3.1,0,0,0,.9-1.8c1.3-1.2,2.4-3.4,4.2-4.6-.1-.8.8-1,.6-1.6.7-.5,1.2-1.4,2-1.8,0,.3.3.1.3.3a1.245,1.245,0,0,0,.8,1.5c.4.1.2-.3.6-.2a14.921,14.921,0,0,1,.2-2.1c0-.1-.2-.1-.2-.2.6-1.2-.4-1.9-.3-3.1.8-.6.6-1.5,1.1-2.4-.1,0-.2,0-.2-.1,1-1.2.2-3.3,1.5-4.1.7.1.6,1,1.5.9.4-.9-.8-1.7.2-2.4a1.839,1.839,0,0,0,1.6-.2c.8-1.2-.9-3-2.7-2.2-.1.4.2,1.3-.9,1.1-.8-1.3-.8-2.6-2.3-3.1-.1.2-.1.6-.3.7.8,1.5.2,3.1.7,4.7-.7,1.7-.2,3.9-1.3,5.2a7.32,7.32,0,0,1-2.3,5,5.855,5.855,0,0,1-3,3,.367.367,0,0,0,.1.3,7.76,7.76,0,0,0-2.5,3.9,21.369,21.369,0,0,0-2.6,5.5c-.3-.1-.3.2-.7.1,0-.7-.3-.9,0-1.3-.6-1.9.6-3.6.8-5.2-.9,0-.9,1-1.9.9-.5-2.3.4-4.4.5-6.7.6,0-.1-.7.6-.7-.1-1,.6-1.3.5-2.4.7-.8,1.9-2.1,2.1-3.1.2,0,.3-.1.5-.1.2-.9,1.7-1.9,1.6-3.1a14.716,14.716,0,0,0,1.6-9c-.3.1-.3-.2-.7-.1-.7,1.5-.5,2.5-1.1,4.1-1.2,1.3-2.2,2.7-3,3.6-1.6.1-1.6,1.3-3.3,1.5-.2-1.4,1.5-1.3,2.1-2.4.5.1.6-.3,1.1-.2.5-1.3,1.3-2.2,1.4-3.6.6-.3.3-1.3-.3-1.4,0,.1-.1.1-.2.1a2.851,2.851,0,0,1-.8,1.4c0,1.9-3,2.5-3.7,4.1-.4-.1-.3.2-.7.1-.3-.8.2-1.2.6-2.1.2-.3.7-.4.9-.7.3-.3.8-1.2,1.4-1a20.316,20.316,0,0,1,1.4-3.9c.2-1.2-.3-2,0-3.2-.2-1.1-.9-2.7-.7-3.8-.2,0-.3-.1-.3-.2.3-1.1-1.2-1.9-1-2.8-.5-.1-.5-.7-.8-1,.2-.1.1-.4.5-.3.6,0,.4.8,1.2.7.5-.2.3-.4.5-.8a4.363,4.363,0,0,1-1.7-1.6,2.87,2.87,0,0,0-2.7.2c-.4-.4-1.3-.2-1.6-.7-.4-.1-.3.3-.7.2.2.3.2.3,0,.7a29.723,29.723,0,0,0,3.5,2.7c.6,1,2,2,1.6,3.5.6.5.1,1.4.6,2-.2,2.4.6,5.4-1.3,7.2-.7,2-3.3,2.5-3.9,4.3-.4,1.2-.1,2.5-1.5,3.2-1.2-.9-.4-2.5-.2-3.8-.3-1.1-.5-2.4-.7-3.6-.5-.1-.2-.3-.3-.7-.1-.1-.4,0-.4-.2.5,0-.1-.5-.3-.5-.3.1-.2.6-.7.5-1.1-1.6-.8-3.5-2.6-4.9,0-1-1.1-1.9-.9-3.1,1.3-.8,2.1-2.7,3.3-4.1h.6c.8.9.8,2.4,2.2,3.2.5-1.6-.7-2.6-1.1-3.8-2.4-.8.4-2.7-.3-4.3-.3,0-.3-.2-.7-.1-.9.6-1.2,1.7-2,2.4.2,0,.1.3.1.5-.6-.1-.3.3-.5.6s-.7.6-.8.8a1.007,1.007,0,0,0,.1.3c-.2.3-.7.5-.9.8-.8,1.2-1.7,2.3-2.6,3.4a1.456,1.456,0,0,1-1.3-1.6,1.383,1.383,0,0,1,1.1-1.2c1.4-1.9,1.7-4.1,3.4-5.6a1,1,0,0,1,.5-1.1c1.5.2,3.7.1,4.8.3.2-.3-.2-.3,0-.7-.7-.4-1.2-1.1-1.9-1.5.3-.2-.1-.4.1-.5,2.7-.4,4,1.6,6.7,1.5a.349.349,0,0,1-.1.2c1.4.6,7.5.4,8.2-.5,0,0-.3,0-.2-.1a5.5,5.5,0,0,0,2.2-.2c-.1-.5,1.5-.4,1.4-.9,1.1.2,1.6-.8,2.5-.5a4.011,4.011,0,0,1-3.3,2.3c.1.1-.6.3-.7.6.3.1-.1.4-.1.6.2.2,1,.1.7.5.7-.3.8,0,1.7,0,0,.3.2.2.1.6-.3.2-.9.1-.7.6a23.175,23.175,0,0,0-3.5,1.4c-1.4-.1-2.7.3-4,0-.4.1-.4.5-.7.7a6.75,6.75,0,0,0,4.8.7,1.721,1.721,0,0,1,.2,1.2c.6.7,2,.8,3.2.9-.1,0-.8,0-.5.1,1.7.2,2.2-.7,3.8-.7-.2-.2,1-.2,1,.1-1,1.3-2.7,1.5-5,1.6.3.1-.3.2-.1.5.2-.2,1.3.7.8.5.6.3,2.3.3,1.5.6.4-.1,1.1.2,1.3-.1-.1,0-.1-.1,0-.1a4.086,4.086,0,0,1,2.2-.3c.4-.3-.9.1-.9-.2h1.4c2.1-1.5,8.8-2.4,10.7-.5-.3-.3.3.5.3.5,0,.3.1.7-.2.7-2.4-.9-8.2-.8-7.3,1.8-.3.3-.3.3-.2.8a8.674,8.674,0,0,1-3.1,1c.1,0,.3,0,.3.1h-.8c0-.1.1-.1.1-.2-2,.4-3.5-.8-4.7-1.4.1-.8-1.1-.4-1-1.1-1,0-1.8-1.2-2.8-.5.2.1,0,.2,0,.4,1.9.6,3.5,1.4,4,3.1.9.1,1,1,2.1.9,0,.2-.1.2,0,.3a15.533,15.533,0,0,0,4.3.2c.2.6.6.7.5,1.4-.5.5-3.4.5-3.1-.1-2.3-.3-2.7-1.7-4.6-2-.8,1.6,1.6,1.7,2,3.1,1-.1,3.9,1.5,3.4.6,1.9-.6,2.5.1,4.2-.2.1-.3.1-.5.2-.8-.4-.2-.5-.7-.9-.9a3.178,3.178,0,0,0-.2-1.3c.3.1.2-.3.2-.5,1-.1.8-.7,1.6-1.1,1.7.1,2.7.5,3.5-.3,0-.4-.3-.5,0-.8a6.89,6.89,0,0,1-.8-.3c.1-.3-.2-.3-.1-.6,1.1,0,2.9,0,3.1.6a6.184,6.184,0,0,1,2.7.5c0-1.4-.6-1.6-1.5-2.3.1-1.1-.7-1.9-1.4-3-.4,0-.8-.2-.6-.5-.2-.1-1.4-.2-1.7-.5.1.1.4-.1.3-.1-2-.6-3.9.1-5.5-.5.3-.1.1-.2.1-.4a2.368,2.368,0,0,0,1-.3c.1-.6-1.2-1-2.5-.8-.1.5-1.5.5-2.5.6,0,.1,0,.3-.1.3-1.2.3-2.5,1.7-3.9,1.2.1,0,.3,0,.3-.1-1.3-.4-3.1.2-3.4-1a6.089,6.089,0,0,1,4.2-1.9c-.1,0-.3,0-.3-.1,1-.2,3.4-1.2,3.1-1.5.8,0,1.6-.2,1.7-.5,1.1,0,1.4-.5,1.4-1.4-.4-.4-1.2-.6-1.4-1.3-.2-1.1,1.3-1.4,1.8-1.9.9,0,2.2.2,2.5-.5-.5-.3-.5-.9-1.4-.8.1-.8-1.2-.2-1.1-1-.8-.2-1.2.4-1.9.6-1.6.3-3.7-.2-5,.7a19.515,19.515,0,0,1-3.6,1.7c-.2.1-.4.4-.6.5a18.643,18.643,0,0,1-2.6.3c-2.8,1-7,.2-9.8-1.1.1,0,.2,0,.2-.1a15.263,15.263,0,0,0-3-.3c0-.1.1-.1.1-.2a6.118,6.118,0,0,0-3.5.9c.2-.6-1.5-.8-.9-.3-.6-.1-.7.2-1.1.3-.1-.4-.7-.3-.9-.7.4-.1.2-.3,0-.5a1.2,1.2,0,0,0,0-1.4c.5-.2-.1-.7.3-1-.9-.4.2-2.1-.8-2.7.5-.1.1-.6.8-.6-.1-.7-.3-1.2.5-1.4a2.92,2.92,0,0,1,.2-.9c-.3.1-.3-.4-.7-.2a1.6,1.6,0,0,1-.9.7c.1.4-.8.6-1,1-.5-.1-.4.2-.8.2-.7,1.4-2,2.2-3.3,3.4-1-.4-.5-1.6-.9-2.3.6-.4.4-1.3,1-1.9-.4-.6.1-1.1,0-1.5-.2-.7-.9-1-1.1-1.9-.7,0-.6-.8-1.5-.7-.3,1.3-1.3,2.2-1.6,3.3a1.412,1.412,0,0,0-1,1.4c-.7-.1-.2.9-.9.8a.637.637,0,0,1,0,.6c-1.3.8-.9,2-2.4,2.5-.2,1-.5,1.8-.8,3.1-1.2.5-4,1.3-5.5.6l.1-.2c-1.9.1-2.7.5-3.9-.2-.2,0-.1.4-.3.3-2.2-.5-3.1,1.6-4,2.4-1.2.1-1.7,1-2.5,1.6.1,0,.1.2.1.3-.8.2-.5.9-.9,1.4-.1.3.2.2.2.5-.5.3-.2,1.1-.7,1.4a13.234,13.234,0,0,1-.8,3.3c.4,1.5-.8,3.8-1.9,4.9a2.845,2.845,0,0,0,0,1.3c1.4,1,3.4-.8,4.3-1.3.5-.2,1-.1,1.1.3a3.331,3.331,0,0,1-1.7,2.3c.1,0,.1.1.1.2-1.3.5-1.4,1.6-2.6,2.3a2.168,2.168,0,0,1-1,1.1c-.1.6-1.1,1.1-1.6,1.7a4.119,4.119,0,0,1-1.2,3.5c-.4.5-1,.4-1.5.8a3.329,3.329,0,0,0-.3.6c-.3.3-.8.4-1.1.7a19.418,19.418,0,0,1-3.1,2.6,9.9,9.9,0,0,1-2.5,2.5,4.363,4.363,0,0,1-1.6,1.7c.1.5-1.2,1.1-1,1.6-1.2.8-2.6,2.2-2.7,3.4,0,.1.2.1.2.2-.3.7.1,1.6-.2,2.3.5.1-.1.6.2.8-1.1,1.7-1.2,4.6-.2,5.9.6-.2.5.5.6.6.3.4.8.5,1.1.9a2.652,2.652,0,0,0,.5.6,18.257,18.257,0,0,0,1.3,1.6c.8.2,1.3-.3,1.8-.6.8-.4,1.6-.8,2.5-1.3.2-.1.3-.5.7-.7.5-.3.9-.2.9-.6.5.2.7-.4.9-.6a37.784,37.784,0,0,1,3.5-1.7c3.1.2,1,1.4,0,2.4-.3.3-.7,1-1.2,1.1-.1.6-1.7,1.2-1.4,2.2-.1,0-.2.1-.3.1,0,.2.1.3.1.5-.2.1-.3.2-.5.3.3.2-.4.5-.2,1-.8,1.1-1.3,2.7-2.2,4.2-1,.7-1,1.9-1.8,2.6,0,1,1.3,1,1.7,1.8.7,0,2,.3,1.6.6.7-.4,1.6.6,1.5.6.2.1.7,0,1,.2.2.1.3.5.5.6.4.2.7,0,1.1.2-.1,0-.3.1-.2.1,1.1.5,2.3.4,2.6,1.4,1.7.5,2.7,1.3,4.4,1.5-.2.6,1.4.3,2,.7-.1,0-.2,0-.2.1a5.883,5.883,0,0,0,3.6.9c.1.8,3.9,1.2,3.4,1.6a19.014,19.014,0,0,0,2.5.3c0,.7,1.9.4,2.7.7-.2,0-1.1-.1-.8.1a4.306,4.306,0,0,1,2.2.4,18.873,18.873,0,0,1-.9,3.4,2.053,2.053,0,0,1-.5,2.2c-1.1-.2-1.3.4-1.7.8.2.1,0,.2.1.5-1,1-1.2,2.4-1.9,3.8.4,2.1-.2,3.5-1.3,5.4a5.11,5.11,0,0,1-.3,4.8c.3.4-.3.4,0,.9a17.608,17.608,0,0,0-1.5,4.4,10.588,10.588,0,0,1,.5,3.1c.4.1.4.7.3,1.1a4.907,4.907,0,0,1,.9,3.1c.5,0,.2.5.2.6.1.3.5.5.7.8.4.7.6,1.5.8,1.8.6,1,.1,1.2.3,2,2.2.9.2,3.1-1.7,3.1,0,.4-.3.5-.7.6-.4,1.4-2.9.7-3.5,1.9a.972.972,0,0,0-.9.1c-.1.9-2.8.2-3.8.6.1,0,.1.1,0,.1-1,.1-2.1.1-3.4.3-.7.1-1.4.7-2.2.8-1.1.2-1.7-.1-2.2.3-5.3.4-10,1.8-14.8,3.1-.1.7-.9.6-1.1,1.1a3.269,3.269,0,0,0-1.5,1.1l.3,2.7v-.2c.4.1.4-.2.3-.6,1.7-.9,1.9-2.6,4.1-3.1-.6-.4,2.5-.3,2.5-.7,2.6,0,4.5-.9,7-1.3,2.5.4,3.6-.8,5.9-.6-.1-.3.4-.1.2-.2.4-.1.8-.2,1.3-.3.5-1,2.3-.3,3.7-.6a19.972,19.972,0,0,0,4.2-1.1c.6-.3.9-.9,2-.8.9-.6,2.4-.6,3.1-1.5,1,.2,1.1-.6,2.1-.6.9-1.2,1.9,0,2.2.7a13.977,13.977,0,0,0,.8,3.4,8.153,8.153,0,0,0,2.3,2.6c.4,2.6,3.9,3.7,5.4,5.9,2,.8,3.2,2.4,5.2,3.2,0,.4-.2.5,0,.7-.5.8-1.8.2-2.7.5.4.3-1,.3-1.4.6,0,.1.1.1.2.1a9.6,9.6,0,0,1-4.1.7c.6.6-.4-.4-.5.2-.3-.5-1,.3-1.8,0,.3,0-2-1.2-2.3-.6-2.3-.1-4-.8-6.4-.8-.4-.1.3-.1.5-.1-1.2-.2-2.3-.3-3.6-.5,0-.1.2-.1.3-.1a29.374,29.374,0,0,0-5.1-.5c1.3-.4-2.2-.3-3.3-.3a42.076,42.076,0,0,0-7.1,0s-.7.2-.3.2a15.262,15.262,0,0,1-3,.3c-.2.5-.9.5-1.4.7,0,.1.1.1.2.1a3.623,3.623,0,0,0-1.9,3.9,5.932,5.932,0,0,1,.5,2.3c-.6.3-.3.9-.7,1.4a.6.6,0,0,0,.1.4l2.7,1.4c0-2,.1-3.9-1-5.5-.1-.6.6-.5.7-1,.2-1,3.5-2.4,4.4-2.2,2.6.7,5.4,0,8.1.3,1.3,0,2.5.1,3.8.2l-.1.2a24.384,24.384,0,0,1,5.4.9c0,.1-.1.1-.1.2,1.3,0,2.6.2,3.9.3,0,.1-.1.1-.1.2,1.2.3,2.7.2,3.9.5-.1,0-.8,0-.5.1.6,0,1.7.2,1.6-.2.1.4.8.2,1.3.2.9-1.1,3.6-.4,5.5-.6.4-.7,1.9-.4,2.7-.7a.749.749,0,0,1-.5-.1c.8.1,2.5-.4,2-.6,2.6.2,2.8-2.3,5.1-1.5.5,2.1,0,4.2.2,6.5-.6.8,0,2.3-.5,3.3a3.6,3.6,0,0,1-.2,2.3,1.854,1.854,0,0,1-.2,1.9c.1,0,.2,0,.2.1-.6,1-.2,2.5-.5,3.8-.1.5-.8,1.4-.5,1.6-.8,1.5-.6,3.2-.8,5.1a6.524,6.524,0,0,1-1.6,2.1c-1.3,1.5-.8,3.6-2.1,5.3a17.676,17.676,0,0,1-.8,3.1.215.215,0,0,1,.2.2c-.2,0-.1.3-.3.2-.1,1.5-.4,2.8-.6,4.4a4.654,4.654,0,0,1,.9,3.1c0,.2.3.4.3.7,0,.1,0,.1-.1.2h1.7c0-2-.7-4-.5-5.8.1-1.2.8-2.6,1-4a28.255,28.255,0,0,1,.2-2.9c.2-.6.7-1,.7-1.7a1.922,1.922,0,0,0,1.3-1.8,9.173,9.173,0,0,0,.9-2.3c.1-.6.6-1,.8-1.7a17.962,17.962,0,0,1,.2-2.2c.1-.3.4-.4.5-.7.3-1.2,0-2.8,1.4-3.1a2.263,2.263,0,0,0,1.5,1c.5,1,2.5.4,3.2,1.1.6,1.2,2.4.4,3.6.3,1.3-.1,2.6.2,3.4-.1-.2,1.5-1.1,2.2-1.3,3.8h-.3c.3,1-.7,2.1-1.1,3.1,0,.1.2.2.1.3-.1.3-.5.6-.6.8,0,.1.3.7-.2.6a.661.661,0,0,1,.1.6c-.6,1.4-.2,2.3-1.1,3.8q-.3,3-.9,6c-1,1.1-1.3,3.7-3.8,3.8a1.2,1.2,0,0,0-.7,1h2.9a2.22,2.22,0,0,0,.5-1.1c1.1-.9,1.6-2.2,2.6-3.1a45.736,45.736,0,0,0,1.6-6.1c0-.3-.1-.7-.1-.9.1-.4.7-1,.2-1.3a8.507,8.507,0,0,0,.9-3.1c.7-1.3,1.4-1.9,1.6-3.8,1.2-1,.9-3.3,2.4-4.2-.1-.6,1.1-.7,1.7-.9.3-.1.2.2.3.3a8.909,8.909,0,0,1,3.9.9c1.3.5,3.9.8,4.9-.7h.7c.4-.1.2.4.5.3.2-.5,2.5-1,2.8-.7a.5.5,0,0,1,.6-.2c-.2-.2-.4-.2.1-.2-.1-1.4-.9-2.7-.3-4.1,1.2-.6,1.6.8,3,.7.5-.9.4-1.9,2.1-1.9.5-.2.2-.6.5-.9-1.3-.7-.6-1.7-.7-3.1-1,.2-1.5,1.1-2.2-.1.2-1-.4-1.6-.6-2.3-1.4.4-.5,2.4-1.3,2.8-.3.4-.9.1-1.3-.1,0-.2.1-.2.1-.3-2.3-.3-.7-2.8-.6-3.8.3-.3,1.5-.3,1.5-.6.9-.2,2.8-1.3,3.1-.2a3.117,3.117,0,0,1,3.2,1.3c1.3.5,3.3-.7,4.6.2a14.153,14.153,0,0,0-.8,8.3c0,1-.1,1.8-.1,3,0,1.9,1.5,3.6.2,5.4.1,2,2.8,2.1,3.6,3.6,2.5-.1,3.6,1.5,6.5,1.4a.85.85,0,0,0,.5.3c2,.2,3.8.5,5.2.5.2,0,.2.2.2.3,2-.2,6,.3,7.6-.2.5,0,1.6.2,1.7-.3,1.7,0,5,.2,6.1-.5a3.21,3.21,0,0,0,1.7.2c.4.8.2,2.1.8,2.7-.3,1.8,1,2.6,1.2,4.1a25.75,25.75,0,0,1,4.4,6c.5-.1.9.5,1.1.2.1,0,.1.1,0,.1.2.6.3,1.3.5,1.9H292c-.1-.2-.1-.3-.2-.5.3-.4.3-1.1.7-1.4-.1-.9-1.2-1.3-1.1-1.9-1-.1-1-1.2-1.9-1.4-.6-1.2-1.9-1.7-2.1-2.7-2-1.4-3.2-4.5-3.3-7.2a6.608,6.608,0,0,1,3.4-.3h1.1c.3,0,.5.4,1,.6s1.4.4,1.5,1.1a.778.778,0,0,0,.8-.2c.1-1.3-1.1-2-2.5-2.3-.1-.1,0-.2,0-.3a30.861,30.861,0,0,0-9.1-.2c-1.2.2-2.5.4-3.7.5a28.282,28.282,0,0,0-4.1.3c-.5.1-1.4-.3-2.3-.2-1.6.2-6.4.7-6.7-.3-1.7,0-3.3-.1-5-.2-.1-.5-.8-.5-1.5-.6,0-.6-1-.6-1.9-.6-.9-1-2.7-1.2-3.4-2.4.7-2.3-.2-4.5-.4-6.3-.8-1.6-.1-3.4-.1-4.9,0-.1-.2-.3-.2-.3,0-.1.2-.2.2-.2a3.466,3.466,0,0,1-.1-2.3c.1-.2.4-.4.5-.6.4-2,1.4-3.6,1.7-5.3,0-.2.2-.3.3-.2-.3-.3.3-.6,0-1,.5-.5.4-1.6,1.1-2-.1-.4-.1-.8.2-1,0-.2.1-.4-.1-.5a17.816,17.816,0,0,0,2.2-5.8c.1-.4-.2-.9-.2-1.4a9.255,9.255,0,0,1,.9-4.6c.1-.3-.2-.3-.1-.6.6-.1-.3-.4.1-.7-.9-.6-.5-1.7-1.5-2.2-.3-1.5.1-3.3-1.6-4.2-.6-1.2-2-2-.9-3.3,0-.2-.1-.2-.2-.2.9-1,.6,1,1.6.8.9-1.7-.7-3.1-.6-4.2-.2-.1-.3-.3-.6-.3.2-.2,0-.6-.3-.6a16.28,16.28,0,0,1,.8-4.4,4.552,4.552,0,0,0-2-.5.937.937,0,0,1-.2-1.1c.4,0,.6-.2,1-.1,2.4-1.7,4.3-3.4,7.3-4.8.4.3,1.8.2,1.6.7.9.2,2,0,1.9.6.6.1,1.9,0,1.7.6,2.2-.2,5.3,1.8,7.2.8,1.1-.4,1.8.1,2.8.1,0-.1-.2-.1-.2-.1.7-.4,1.8-.5,2.2-1.3,2.2.4,2-.9,3.6-.9-.1-.1-.2-.1-.3-.2a.9.9,0,0,0,.5-.1c.3-.1.9-1.4,1.7-.9.7-1.6,2.4-1.4,3.1-2.7h.8a12.438,12.438,0,0,0,1.9-3.6c.2-.1.3-.2.5-.2.5.1.9.4,1.5.5,0,.5.3.6.3,1,1-.1,1,.9,2.2.7-.2.2.5.4.7.6,0,.6-.3,1.3.2,1.8.2,1.5-.3,2-.2,3.5h.8a17.282,17.282,0,0,1-.1,6l-.9.9c.3.6-.2.6,0,1.1-2,0-4.5.8-6-.2-.8.5-1.8.7-2.5,1.1-.9-1-.7-2.2-.9-3.5a.574.574,0,0,0-.7-.2c.5-.2-.3-.5-.7-.6.3-1-1.6-1.3-3.1-1,0,.3-.8.5-.7.9-2.1.2-2.5,1.7-3.5,3.3-1.1.1-1.4-.6-2.2-.8-.2-1-2.2-.4-3.6-.6,0-.6-.9-.2-1.4-.3,0,.1.2.1.3.1-.3.2-1-.1-1.4.2-.2-.1,0-.1,0-.2a1.81,1.81,0,0,1-1.6-.1c-1.4.8-3.1-.9-4.9,0-.9-.5-2.6.6-3.3-.2-.1-.1,0-.3,0-.3-.7-.5-1.8-.7-1.6-1.4-.4.1-.5-.1-.9-.1-.5,0,.2.5-.3.5.5,1,1.1,1.6.5,2.5,1.9,0,1.5,2.2,2.5,2.6a27.959,27.959,0,0,0,1.3,4.1c.7-.1.6.8,1.3.8a2.444,2.444,0,0,0,2.9,1.7c.2,0,.3-.1.5-.2-.5-3-.8-5.1,1.1-6.7.7,1.5-.7,3.1,0,4.6.1,1.8-.8,3.4-.7,4.9,0,.3-.1.8-.1.9.1.7.7,1.4.3,2.4.7,1.4-.3,3-1.5,3.8.2,1.2-1,2.2-1,3.5,0,.8.6,1.2.6,2.2-.1,1.3-.9,2.6-1.3,4,0,.1.2.1.2.1a1.445,1.445,0,0,0-.2.7c-.2,1.1-.7,2.2-.9,3.3a12.046,12.046,0,0,0,.5,5,3.749,3.749,0,0,0,1.1,3.2c-.3,1.5.1,3.6-.2,5.3-.1.7-.6,1.3-.5,2,.3,1.3,1.9,1.8,3.8,1.6,0,0,3.5-.5,4-.7.8-.3,1.1-.2,1.5-.6,2.9-.2,5.4-.2,7.3-.5,0-.1-.1-.1-.2-.1,2-.2,2.5-1.5,4.2-1.8-.1-.3.4-.1.8-.3s.7-.8,1.1-1,2.1-.2,1.6-.5a19.328,19.328,0,0,1,3.4-.1c.1.2.5.1.3.6.4,0,.5.3,1,.2-.3.5,1.2.2,1.8.6-.2.6.5.3.8.6.5.4.5,1.3,1.5.8,0-1.2.1-2.4.2-3.6a.443.443,0,0,0-.6-.3c.2-3.2-.5-5.9.5-8.2a1.9,1.9,0,0,1-.5-1.3c-1.1-.6-1.7-2.2-3.3-2.6.2-.4-.6-.7-1.2-.7-.2-.5-.4-1-1.1-1a5.692,5.692,0,0,1-1.1-2.9,6.377,6.377,0,0,1-1.4-.8,8.649,8.649,0,0,0,.6-2.3,1.535,1.535,0,0,1,1.3-.5c0,.1-.1.1-.1.2,1.2.1,2.3.5,3.1-.2-.1-.6.5-1.4,1.6-1.1-.7-.2.6-.4.7-.6.3-1.7-2.6-2.5-1.4-4.2,1.1.1.8-.5,2.1-.3,0,.5.4-.1.1.3,1.1.4,1.8,0,2.8.3.1,0-.3.2-.3.1.1.2,1.2.1.9.5-.7.9.1,1.8,0,2.7.5,0,.7.3,1.2.2.1.8.9,1.7,1,2.3,1.1,0,1.1.5,1.7.9-.2.9-1.3,1.3-2.5,1.6a5.025,5.025,0,0,0-2.7-.5c-.7.2-.9,1.1-1.8,1.1-.1.4-1.2.5-2.2.5.4-.3-.5-.1-.1-.5-1.4.4-2.1-1.5-3-.3-.1,1,1.6.7,1.4,1.4.5.1,1.5.2,1.3.6,2.2.6,3.2-.1,4.7-.8,0-.1-.2-.1-.3-.1a7.945,7.945,0,0,1,2.2-.6.821.821,0,0,0,.5.5c-.3,1,.1,1.9,1.3,1.9,0,.3.9.6,1.1,1-.1.8-.4,1.1,0,1.7a2.823,2.823,0,0,0,3-.9,1.555,1.555,0,0,0-.6-.8c.2-.2.3-.5.7-.6.3.1.4.5.8.6.4,1.9-1.4,3.3-3.4,3.8a18.1,18.1,0,0,0-2.3-.3,3.53,3.53,0,0,0-1.5-1.7,2.189,2.189,0,0,0-1,.9c-4.1-.4-.3,3.4.6.8.8-.3.9.5,1.3.8.1.1.4,0,.6.1,0,0-.2.2-.1.2.5.4.9.1,1.5.3,0,0-.2.2-.2.1.2.2,1,.3,1,.5.1,1.7-1.7,2.4-3.3,2.8-.5,1.3.9,2.1,2.5,1.9,0,.1-.1.1-.1.2h.7c0-.1-.2-.1-.2-.1.7-.1,1.6-.1,1.7-.9.1.1.4.1.6.2-.3,1.8-1.6,2.9-.9,4.8h.5c.7-1.4,1.1-3,1.9-4.3,1.2-.1.9-1.4,1.1-2.1-.2-.3-.7-.3-1-.3.3-.5-.2-.4-.2-.8.1-.5.7-.9.3-1.5-.4-.1-.3.2-.6.2-.4,0-.3-.3-.6-.3.1-.7.6-1.1,1.5-1a6.511,6.511,0,0,0,1.3-4.7c-1.3-.7-.5-2.5-1.9-2.7a2.294,2.294,0,0,0-1-2.4c.1-.9,1.2-.1.9-.2.4.2,1.2.2,1.6.5a1.426,1.426,0,0,0,.6-1.5c.9-.3.8-1.6,1.1-2.5a3.147,3.147,0,0,0,1.5-.8c-.2-.5-.9-.4-.9-1,.4-.5,1.3-.5,2-.7-.5-.5,1.5-.3,1.1-1.4-.1-.2-.5,0-.5-.7-.4-.1-.7-.1-.8.3-1.4.1-1.7-.9-2.8-1.1-.1-.7-.5-1.2-.1-1.8a8.969,8.969,0,0,0,4.3-.5c.2.5.4,1.1.7,1.7,1.1,0,2.1-1.3,2.7,0,.5,0,.9.1.9.6,1.1-.2,1.1.7,1.9.8-.1.6.4,1.5-.2,2.1-.1.4.2.4.1.8,1.4-.2,1.3.6,2.2.8a4.8,4.8,0,0,0,.5,1.7c-.3.4,0,.7-.4,1,.1.3.6.4.4.7.5,0,.8.2,1.3.2a2.768,2.768,0,0,1,.1.9c-1.4.7-.7,2.4-1.4,3.6,1.4-.2,1.6,2.9,1.1,3.3-.7.7-.8,0-1.8-.1a35.376,35.376,0,0,0-1.1,4.4c-.5-.1-.4.4-.9.2,0-.4-.4-.4-.6-.6-1.2,1.9-.5,6,.8,8.3,1.3.6,2,1.8,3.7,2.2-.1.3.2.3.1.7a.661.661,0,0,1,.6-.1,4.758,4.758,0,0,0,2.6,1.8c-.3,1,.7,1.1,1,1.9a1.555,1.555,0,0,1,.6-.8,41.455,41.455,0,0,0,3,4.3l1.1-1.6a4.74,4.74,0,0,0-1-1c-.7-2.5-3-3.1-4.9-4.7-.6,0-1.5-.1-1.3-.6a22.681,22.681,0,0,1-3.4-1.9c.3-.5,0-.5.1-1-.3-.4-.6-.1-1.1-.1,0-.1-.1-.1-.2-.1a9.047,9.047,0,0,1-.9-4.6.481.481,0,0,1,.6-.2c.2,1.6.6,3.5,2.6,3.8a3.424,3.424,0,0,1,.5,2.2c.1,0,.2,0,.2.1,1.2-.1.8-1.5.8-2.2-1.7-1-3.1-2.8-2.4-4.7,1.4-.3.6-1.8,1.4-2.5,1.5,1.5,2.6,3,4.9,3.3.1-.1.2-.2.2-.3-.5-.8-1.7-1.4-1.7-2.5,0-.2-.2-.2-.4-.2.2-1.6-1-2.8-1.3-4.2-.6-3.4,1-6.8-.6-9.3a10.766,10.766,0,0,0-1.8-2.4c-.6-.1-.7.2-1.3.2-.5-.4-.6-1.6.5-1.4.4.1.9.6,1.6.8,1,.3,1.7-.2,1.4.3h1.9c-.9-.4,2.4-.4,2.3-1.5a10.868,10.868,0,0,1,1.8.1c-.7-.2.1.5.7.2-.3-.3-.8-.1.1-.2,1.8-.3,3.8.1,6-.1a44.352,44.352,0,0,1,10.3,0c.1,2-1,2.6-.9,3.9a30.9,30.9,0,0,1-1.4,3.2c-.2.3-.1.7-.2,1s-.4.4-.6.7c-.1.2-.1.8-.2,1.1s-.5.5-.6.8c-.2.7,0,1.3-.7,1.7-.4,1.7-1.3,2.7-1.9,4.2,0,.3.2.2.1.6a14.015,14.015,0,0,0,0,7.6,9.191,9.191,0,0,0,.6,3.3l1.6-.8a5.4,5.4,0,0,1-.3-2.5,16.2,16.2,0,0,1-.3-2,14.259,14.259,0,0,1,.9-5c-.2-1.3,1.2-2.5,1-4.1.4-.8,1.5-2.4,1.3-3.5.3-.7.6-1.6,1-2.5a4.671,4.671,0,0,0,.3-1.7,2.64,2.64,0,0,0,.7-1.9c.3.1.2-.2.3-.3.3-1.5.4-4.4,3.2-4.1,1-.9,1.1-3,1.1-4.4-.3-.2-.4-.7-.8-.8a8.423,8.423,0,0,0-.8-2.7c-1.2,0-.8-.9-.8-1.7.1-1.8-1.1-4-1.3-5.6-.1,0-.2-.1-.3-.2.1,0,.1-.2.1-.3-.1,0-.2-.1-.3-.2-.2-1-1.1-2-1-3.4-.1,0-.2-.1-.3-.2.2-2.1-2.5-4.4-.1-6.3h1.4c-.2.5,1,.4,1.4.7-.1,0-.2,0-.2.1,1,.2,1.3,1,2.6.9,0,.8,1.9.3,1.6,1,1,.1.9.7,1.7,1,0,.1-.1.1-.1.2.7.1.8.8,1.6.8a10.9,10.9,0,0,1,2.4,4.8c-.1,1.6.4,3.4.3,5,0,1-.8,1.7-.9,2.7-.1.3.3,1.1-.1,1.1.3.5-.3,1-.2,1.6-2.2,2.7-4.5,7.6-3.6,10.8a1.679,1.679,0,0,0,.2,1.8,6.28,6.28,0,0,0,.6,3.3c.4,0,.7.3.5.6,2.3.6.3,3.6,2.4,4.2,1-.8.1-2.1.1-3.1.2-1.2.5-2.4.8-3.6-.1-1.4.5-2.1.6-3.6,1.3-2,2.8-5.8,1.9-8.2-1.2.9-2,3-2.5,4.6a5.832,5.832,0,0,0-.2,2.3c-.9.7-1.1,2.1-2.3,2.5-.3-2.8.8-5.7,1.7-8.4.1-.4.1-.8.2-1.1.1-.2.5-.3.6-.6a16.886,16.886,0,0,0,.9-12.1c.5-1-.3-1.9-.2-2.9-.1,0-.2-.1-.3-.2-.5-2.1-2.6-3.5-4-5.1-.4,0-.9-.3-.7-.6-.6-.1-2.3-.3-1.6-.6-.8-.1-2.3-.1-2.3-.6-1.5-.4-5.3.1-5.6-.5,0,0,.4,0,.3-.1a2.82,2.82,0,0,1-3.3-1.9c-1-.4-2.2-2.7-.1-2.7a.9.9,0,0,0,.1.5c.9,0,1.7-.1,2.1.2.1-.1.1-.3.6-.2.2.6,3.6.3,4.2.1-1,.3,1.3-.4.2.1a29.2,29.2,0,0,0,5.9.3c.1.7,1.7.3,2.3.7-.1-.1-.2.1-.2.1a22.038,22.038,0,0,0,3.6.4c-.1.7,1.8.4,2.5.7-.1,0-.2,0-.2.1,1.1.2,1.7.9,2.7,1.1,0,.1-.1.1-.1.2a6.324,6.324,0,0,1,2.3,1.2,4.22,4.22,0,0,1,1.2.3c-.1,0-.3,0-.3.1a1.929,1.929,0,0,0,1,.3c0,.2.1.2.1.5a4.261,4.261,0,0,1,2,1.5l1.3-1.9C371.9,238,371,237.9,371.3,237.5ZM206,157.9c.5,0,.6.3.9.5-.4.4.4.7-.1.9a1.907,1.907,0,0,1,.2,1.3l1.5,1.5c.5,1.9.5,3.6.9,5.7-.3,0-.3.4-.8.2a11.829,11.829,0,0,0-2-4.9c.3-1-1.6-2.3-1-3.2-.1-.2,0-.5-.3-.5C205.5,158.8,205.4,158.3,206,157.9Zm-1.4,5.6c.8,0,.8.8,1.4,1,.2.7.1,1.7.7,2.4a24.91,24.91,0,0,1,.3,7.7c-.6,2.1-.1,4.2-1.6,6-.4,0-.3-.1-.7,0,.3-1.6.7-3,.9-4.4a1.669,1.669,0,0,1,.1-1.8c.2-2.2-.2-2.9,0-4.7,0-.3.2-.5.2-.8-.1-1.1-1.3-2.5-.9-3.8a1.142,1.142,0,0,1-.6-1.5C204.5,163.6,204.5,163.6,204.6,163.5ZM317.5,282.8c.4-.1.4.3.8.2.3,1.5-1.3.6-.8-.2Zm12.2-86.7c-.6,1.3,0,3.2.2,4.8a7.719,7.719,0,0,1-.2,1.5v.8c-.2,1.4-.4,3.7-.6,5.4-.1.6,0,1.3-.1,2-.4,2.7-1.6,5-1.8,7.5-.5.5-.2,2.3-.5,3.5-.2.7-.7,1.3-.8,1.9-.1.8-.3,2.1-1.2,2.4a19.806,19.806,0,0,0-.8,3.3c-1.4,1.7-1.7,5.1-3.8,6.4,0,1.3-1.1,1.6-1.8,2.3s-.5,2.1-1.3,2.8c-.3.2-.7.2-.9.5-.6,0-.8-.4-1.5-.2-.2.3.4,1.5-.8,1.2a1.978,1.978,0,0,1,.2-1.1c-.8-.8-.8.8-1.8.5,0-.2-.1-.3-.1-.5-1.6-.5-2.5-2.2-3-3.4-1.1-.8-.6-3.1-1.5-3.9,0-1.1-.6-2.4-.5-3.3,0-.1-.2-.2-.3-.2,0-.3,0-.6-.2-.7a16.594,16.594,0,0,0,.3-4.4c-.2-2.4.3-4.7-.3-6.8,0-.1.2-.2.2-.3-.2-1.5-.5-3.2-.7-4.9a1.809,1.809,0,0,1-.2-1.5,31.97,31.97,0,0,0,2.7-2.5c1,.2,1.6-.5,1.5-1.1a2.726,2.726,0,0,0,2.3-1.7c2.2.1,1.8-2.4,3.6-2.7.9-2.1,3.4-3.3,4.1-5.2,2.1-1.4,2.8-3.8,3.9-5.6,1.1.2,1.2.4,1.6.9,0,1.7-1.1,3.2-1.3,4.4a5.061,5.061,0,0,0-.9,4.1,10.362,10.362,0,0,0-1.1,3.8.367.367,0,0,1-.3.1,6.936,6.936,0,0,1-1.6,3.6c-1.3,4.2-4,7.6-6.3,10.9,0,.2.4.1.3.3a.908.908,0,0,1-.3.7c-.4,0-.2-.4-.6-.5-.6,1.3-1.9,3.4-1.6,4.9,3.4-1.7,4-4.6,6.3-7.4.9-2.1,2.5-3.8,3.1-5.9a5.794,5.794,0,0,0,1.6-3.1h.3a5.335,5.335,0,0,1,1.7-3.6c0-2.3,2-4.7,2-7.2.6-1.3.6-3.3,1.3-4.7-.5-.8,0-2.5-.1-3.3.6-.3.9-1,1.7-1,.9,2.3-1,3.8-.1,6.2Zm-6.1-7.3a.76.76,0,0,1,.9.5c0,.5-.6.5-1,.3-.1-.3-.1-.7.1-.8Zm11.8,9c-.7,2.4,1.2,5,1.2,7.6,0,.2.2.2.4.2.4,1.2.3,2.7,1.1,3.6a1.1,1.1,0,0,0,0,.8.821.821,0,0,0-.5.5h-.8c.8.5-1.7.4-2.6.6-.4.1-.7.7-1.1.4-.1-.2,0-.2,0-.4a7.568,7.568,0,0,1-1.5-.1c-.7-1.8.8-4.2.2-6.1.8-2,.3-4.4.9-6.1a4.735,4.735,0,0,0-.1-1.7,35.293,35.293,0,0,1,0-4.6c-.1-.1,0-.4-.3-.3.1-.1.3-.7-.1-.6.3-.7-.2-1.8,0-2.6a.821.821,0,0,1,.7-.1,7.837,7.837,0,0,0,.5,1.4c.1.2.4.2.6.2.7,2.4.7,5,1.4,7.3Zm-8.9-21.6c1.4-.5,2.8-.1,4.2-.5,0-.1-.1-.1-.2-.1a11.234,11.234,0,0,1,3.2-.3c.4-.2.1-.7,0-1-1.5-.4-2.9.3-4.2-.1,0-.5-.8-.9-1.5-1.1,0,.1.1.1.2.1-.7-.2-1,.1-1.9.1,0-.1.3-.2.3-.1-.5-.4-2.4-.3-3.2-.8-.2-.2,0-.6-.5-.6,0-.3.3-.3.2-.7a9.612,9.612,0,0,0,2.9.8s-.2.2-.4.1a7.246,7.246,0,0,0,4.6.1c-.6-.4,1.2-.1,1.7-.2a3.592,3.592,0,0,0,.7,1c.6.5,1.8.7,1.9,1.1a2.7,2.7,0,0,0,1.3.9,1.281,1.281,0,0,0,1,1.1,2.434,2.434,0,0,0,1,1.4c-.2.2-.2.6.2.6a9.671,9.671,0,0,1-.5,3.4h-.3a6.794,6.794,0,0,1-2.2,3.5c-1.4.7-4.2,3.3-5.7,1.1.2.1-1-.6-.6-.5a5.7,5.7,0,0,0-1.3-.1c-.6.1-.4,0,0,0a1.087,1.087,0,0,0,.5-.1,21.738,21.738,0,0,0-3.6-.2c.2-.8-.8-.5-1.3-.7,0-.4-.4-.6-1-.6a4.069,4.069,0,0,0-1.9-1.3q.15-.3.3-.3c.3.6,2.1.1,2.1.9.6.1,1.6.1,1.5.6h.9c-.9-.4.6-.2,1.1-.2.2,0,.4-.3.7-.3,1-.2,2.4.3,3-.2.5-.8-.1-1.2-1.1-1.1,1-.3-.2-.2-.9-.2a15.974,15.974,0,0,0-3.8-.1c-.2-.5-.6-.6-1.4-.8.2-.4-.6-.6-1.3-.6.2-.3-.3-.6-.7-.6,0-.1.3-.4,0-.5.3-.6,1.3-.1,1.5.5a5.924,5.924,0,0,1,3.2.6,6.835,6.835,0,0,1,3.4-.8c.3-.4.9-.2,1.3-.3.2-.1,0-.2.1-.5-.2-.8-2.2-.2-2.1-.6-1,0-3.9.9-4.1-.7-1.1-.3-1.7-.9-3.1-.9.7-.4-.6-.2-1-.6-.1-.2.4-.3.1-.3,2.3-.1,5,2,6.7.7Zm-7.4-3.8c.5.1.6,0,1,.1,0,0-.3.2-.4.1.3.2.9.1,1.1.6a2.01,2.01,0,0,1-2-.2c.2-.2.2-.5.3-.6Zm-3.1,3.1a5.007,5.007,0,0,1-.9,2.4c-.1.7.6,1.3.6,1.8,0,.2.4.1.4.2.4.8.9,1.2.8,2.3.1.5.9.8.8,1.2.3,0,.5.2.8.2-.1.4.6.6.3,1a1.884,1.884,0,0,0,.8.2c-.1.5.5.8.6,1.3-.9,1.1-3,2.2-2,3.4.8,0,.8.9,1.6.9-.4.6.7.6,1.3.6-.4.4,1.2.4,1.8.6a1.1,1.1,0,0,0,0,.8c-1.4,1.4-1.9,4-4,5.1a2.851,2.851,0,0,1-1.8,1.9,14.245,14.245,0,0,1-2.9,3.1c-.3.2-.5.4-.8.6-.2.4-.3.3-.7.6-.2.1-.2.3-.6.6a5.64,5.64,0,0,1-2,1.1c-.4.1-.8.9-1.3,1.1a8.178,8.178,0,0,1-1.9.9c-.2,0-.5-.1-.7-.1-.1-4.1,1.3-7.4.3-11,1-.6.6-1.3.6-2.2a36.224,36.224,0,0,1-.2-5.7c.2-.1.2-.4.3-.6a.965.965,0,0,0,.8-.2,1.412,1.412,0,0,1-.1-.9c.1-.3.5-.2.7-.4,0-2.1,1.4-3.6,1.8-5.2.2-.2.5-.2.5-.7a1.412,1.412,0,0,0,1-1.4c2.1-.8,2-3.7,4.1-3.5Zm-1.9-1.9h-.6c-1.4,1-2.4,3-3.4,4.2.4,1-1.4,1.2-1.1,2.3-1,.9-1.4,2.7-1.8,3.8h-.6c-.6-.8-.1-1.9-.9-2.3-.2-.7,0-2.2-.5-3.1,0-.1.1-.1.2-.1-.3-1.8,2.3-2.9,3.2-4.1a31.115,31.115,0,0,1,3-2.7c1.5-1.4,3.6.8,2.5,2Zm-13,1.9c.1-.1.2-.2.3-.2a14.715,14.715,0,0,1,3.6-7.9c.7,0,.7-.8,1.4-.8.3-1.1,1.5-1.3,1.9-2.3a15.3,15.3,0,0,0,4.7-4.1c2.2-1.3,2.8-2.8,4.6-4.1-.1-.3,1-.5.8-.9.3-.2.6-.3.9-.5,0-.1-.1-.1-.2-.1,1.4-.5,1.4-1.6,2.8-2.2a4.48,4.48,0,0,1,2.4-1.9c.3-.4.5-1,1.1-1.1.4-.8,1.5-.9,1.8-1.7a32.663,32.663,0,0,0,3.6-2.5,6.59,6.59,0,0,0,2.4-1.1c1.1.2,1.3-1,2.2-.7a52.506,52.506,0,0,1-3.3,4.9A4.517,4.517,0,0,0,331,150c-2.1.9-3.1,2.8-4.9,4-.9,1.4-3.2,2.9-3.9,4-2,1.6-3.6,3.7-5.6,5.2a19.283,19.283,0,0,1-3.3,3.1c-3.3,2.7-5.1,6.1-8.4,8.5-.3.6-1.8,1.4-1.7,2.3-.2,0-.2.3-.6.2-.1.9-1.1,1-1.5,1.9h-.8c-.2-.2.2-.6-.2-.7a4.918,4.918,0,0,0,1-3ZM287,162.4c.2.3,1.3.2.7.7,1.3.3,2,1.2,3.5,1.3,0,.3.7.2.3.6.4-.1.4.2.8.2,0,.4-.3.6.2.6a1.809,1.809,0,0,0,1,1.9,1.053,1.053,0,0,0,.8,1.1,1.881,1.881,0,0,0,1.1,1.9c-.1.3-.1.5.4.6a2.557,2.557,0,0,1-2.2,2.4,28.186,28.186,0,0,0-3.3,3.6.749.749,0,0,1,.1.5c-1,.8-.7,2.5-1.5,3.2.2.3-.1,1.1-.7,1a5.343,5.343,0,0,0-.6-1.4c-.5,0-.8-.2-1.3-.2.1-.5-.8-.9-.9-1.7-.8,0-.8-.7-1.4-.8-.1-.5-.5-1.7-1.5-1.8-.3-.7-.1-1.6-1-1.8-.1-.8-.5-.9-.3-1.6-.1-.3-.8-.3-.5-.7-.6,0-.9-.5-1.4-.2-.1.8.1,1.1-.1,1.7a4.3,4.3,0,0,0,1,.9c0,.8-.1,1.6.9,1.8.2.9.3,2,1.4,2.1-.1.6.6.9.3,1.6.4,0,1.2.2.9.6a2.345,2.345,0,0,0,1.2.2c.1.2,0,.4.4.6-.2.4-.1.4-.1,1,.3.3.8.5,1,.9-.3.6-.7-.1-1.3.3-.5,1.4-1.1,2.8-3.2,2.6a4.145,4.145,0,0,1-.3-1.6,10.632,10.632,0,0,1-1.1-.9c.5-.3-.1-.6.1-1-1.3-1.1-.6-3-1.4-4.6a11.694,11.694,0,0,0-2.4-5.6c.3-.8-.1-1.7.6-2.2a3.591,3.591,0,0,1,.1-2.7c.4-.7.7-.5,1.7-.6,0,0-.1.2-.2.1.6.2,1.1-.5,1.1-1,1.7-.2,1.8-1.9,2.4-3.1a.965.965,0,0,0,.8-.2c-.2-.4.2-.7-.3-.8.9-.3,1.4-1,2.1-.7a4.655,4.655,0,0,1,2.1,1.2Zm-9.7,30.5c-1.6.5-1.3,2-1.8,3.1-.3.3-1,.3-1.5.5,0,.5.7.4,1,.7.1.4-.1.5-.2.7-2.3-.8-3.7-2.5-5.4-3.9.2-.5-1.1-1.1-1.5-1.8-.2-.3,0-.7-.2-.9-.2-.3-1-.3-.7-.7-2.4-.2-3,1.8-3.8,3.2.2.5.6.8.6,1.6,1.2,0,1.2,1.2,2.2,1.4-.2.2,0,.8-.3.8.5.3.2.7.7.9-.2.6-.4.9-.2,1.5-.5.4-.9,1-2,.8-.5,1.6-2.2,0-3.2,1.1,0,.2.3.2.2.6a3.328,3.328,0,0,0-1,.6c.1,1.1-.7,1.9-1.3,3-.6.2-.6-.3-1-.3.3-.4.1-.6.3-1,0-.2-.1-.2-.1-.5a22.85,22.85,0,0,1-7.6-2.2c-.1-.6.1-.7.1-1.1,1.4-.8,2.9-1,3.4-2.6,1.3-.5,2.4-2.1,3.2-3,.5-.7,2-1.1,2.3-1.7a1.905,1.905,0,0,1,1-.5c-.1-.4.9-1.2.5-1.5a7.685,7.685,0,0,1,2.2-2.2c-.2-.8,1.3-1.9,1.3-2.8a10.035,10.035,0,0,0,2.4-3.3c.2-.5.1-1.2.4-1.7.1-.3.5-.4.6-.7s-.3-.5.2-.6c.2-1.9,1.6-3,1.7-4.8.3-.5,1.3-.5,2.2-.5,0,.4.7.8.7,1.3-.3.2-.6.3-.5.8,0,.1.3.4.3.5,0,.3-.3.6-.3.9s.3.6.3.9c.1.9-.4,2-.2,2.8.5.2.2.7.7.9-.1.3-.2.5-.3.8,1,2.5-1.7,4.2-.9,6.6-.2.7-.4,1.4-.6,2.2.7.2.9-.8.7-1.1.4-.4,1-1.2.9-1.7a1.374,1.374,0,0,1,.8-.5c-.2-.3.3-.6,0-1,1.4-2.5.7-4.6,1-7.1a.215.215,0,0,0-.2-.2c.8-1.9-.3-3.9-.2-6.2.5-1.1,1.8-.7,2.5.1-.1,1,.5,1.7.4,2.8,1.2,1,.6,2.5.8,3.6,1.3.5.3,2.5,1.7,2.7.1.8.6,1.1.5,1.7.4-.1.4.2.8.1a1.993,1.993,0,0,1-.7,2.8,6.891,6.891,0,0,1-.8.3c-.8.8-.9,2.4-2,2.8,0,.4-.2.8-.1,1Zm-2.5,16.5c-1.7.2-2.4-.6-3.8-.8a3.144,3.144,0,0,1,.5-2.1c.8,0,.7.8.7,1.3.9.5,2.3.5,2.6,1.6Zm-1.8,1.7c0,1.3-1.9,1.4-2.7,1.1a.854.854,0,0,0,0-.7,2.872,2.872,0,0,1,2.7-.4Zm-2.8-3.8c-.5,1.1-1.6,1.1-2.7.6-.5-1.4-3-1.8-2.5,0,.3,1.2,2.6,1.8,3.3,2.5,0,1.2-.3,1.4-1,1.7-.6-.2-.7-.7-1.6-.6,0-.1.2-.1.3-.1-1.3-.9-2.7-.7-2.3.8a1.842,1.842,0,0,0,2.2,1.4h0c0,.1-.1.1-.2.1.5.3,1.1.4,1.2.7.4.9,3.1-.4,3.8.6-.3.2-.1.2-.2.6-.3,0-1.1.6-1.2,0-2.1.8-5.2,0-7.2-.6.6.2-.6-.6-.9-.2-.6.5-.3,1.3.1,2.2-.5.5-1.6,0-2.5.1,0-.6-.6-.6-1-.7-.1-.6-1.4-1.1-1.9-1.7-.2-1.1.6-2.4-.5-3.1.7-1.5-.2-2.7.8-3.9,1.1.3,1.5-.1,2.9,0,.4-.9,1.1-1.4.9-2.3,1.5-.5,1.9-1.5,2.6-2.8a11.294,11.294,0,0,1,2.6,0,2.966,2.966,0,0,1-.2,1.6c0,.5,1.2.3.9.7.7.1,2.2,0,2,.6.5.1,1.8.1,1.6.6,1.5-.5,1.8,1,.7,1.2Zm-3.3-5.8c0,.5.1,1.4-.9,1.3-.7-.4,0-1.8.9-1.3Zm-.4-1.5c.3,0,.6,0,.6.4-.3,0-.7.1-.6-.4Zm3.7-28.7c-.5-.3-.3-.6-.8-.9a11.17,11.17,0,0,1,1.9-2.4c.7,0,1.4.4,1.6-.3a1.063,1.063,0,0,1,1,.9c.4-.1.6.1.9.1,1.1,2-.3,2.8-.7,4.4-.6,0-1.2-.3-1-.7a1.845,1.845,0,0,0-1.6.5c-.7,0-.8-.5-1.4-.6.4-.4-.3-.5.1-1Zm17.3-20.6c-.8-2.2,2.2-.8,3.5-1-.3.3-1,0-1.5.1a2.775,2.775,0,0,0,1.8,0c.1.2.2.3.2.5-.4,1.8-2.4.6-4,.4Zm-20.6-21.3c.4-3.1,2.7-6.1,4.8-8.5,1.1-.3,1.4-1.3,2.2-1.9h.6c.1-.2.4-.2.3-.6.5,0,1,0,.9-.6a30.369,30.369,0,0,1,6.6-2.3c0-.1-.1-.1-.2-.1a27.22,27.22,0,0,1,11,.7c.6.8,2.1.7,2.6,1.7.5-.1,1.2.2.9.6,2,.3,2.1,1.8,3.9,2.6a2.539,2.539,0,0,0,1.3,1.4.921.921,0,0,0,.7,1.1c.4,1.3,1.7,2.4,2.3,3.8.1.3,0,.7.1,1,.3.9.7,1.7,1,2.7-.1,1.4.3,3.8.2,5.9a5.025,5.025,0,0,0-.5,2.7c-.5,1.1,0,2.4-1.1,3a6.174,6.174,0,0,1-1.6,3.1c0,.1.1.1.2.1a26.156,26.156,0,0,0-2.4,3.4,1.983,1.983,0,0,1-2.1.1c-.8-1.6-.2-4.1-.2-5.5a14.817,14.817,0,0,0,1.7-5.4c0-.3-.5-.2-.8-.2.6-2.2.1-5.4-1.8-6.9,0-.2.1-.2.1-.3-1.4-.5-1.8-1.9-2.6-3-1.1-.8-2.3-1.6-2.6-2.6-1.4,0-2-.8-3.3-.9,0-.5-1-.6-1.4-.3-.1-.2-.6-.2-.3-.5a10.179,10.179,0,0,0-3.5.3c-.6,1.1-3.3.2-5,.5-1.3.2-1.8,1.2-2.9,1.5-1.5,1.2-2.4,3.9-3.9,5.4a3.118,3.118,0,0,1-1.6,2.4c-2-1.3-2.5,1.2-4.3.9-.7-.9.2-1.9-.3-2.6C266.6,131.5,266.1,130.3,266.9,129.4Zm.7,12.8c.1-.2.3-.3.7-.3a5.9,5.9,0,0,0,.2-1.4,2.178,2.178,0,0,0-.8-.5c-.5.5-1.3,1.5-2.2.7,0-.1.3-.4,0-.5a1.024,1.024,0,0,1,.6-.5c-.5-1.1.8-1.6.8-2.9h1.6c-.1-.6.6-.5.7-1.1,2.5.3,3.3-1.8,5-2.6,1-1.6,1.3-3,2.2-4.3.9.1.7-.8.8-1,.8-.9,2.4-1.2,4-1.6.1-.1,0-.3.2-.5a4.973,4.973,0,0,0,2.1-.1c-.6-.3.4-.2.8-.2-.5.6,2.4.6,2.3,0h.5c0,.1-.1.1-.2.1.8.3,1.5.1,2.3.5.1,0-.3.2-.3.1.2.5,1.4.2,1.8.5.4.2.7,1.3,1.5,1.4-.2.5,1.2,1.3,1.6,1.8.1.1-.1.3,0,.3.6.6,1.5.9,2.1,1.5.8.8.5,1.9,1.4,2.5-.4,1,.7,1.6.7,2.6,0,1.1-1.1,2.1-.5,3-.4,1.1-.9,2.5-.2,3.2a5.816,5.816,0,0,1-1.2,2.5c-.5-.1-.5-.6-.8-.8h-1.1c-.8.9-.6,2.6-1.6,4.2-1.9.5-2.9-.9-4-1-.1,0-.8.6-.4,0-1.3.1-1.4,1.4-2.5,1.6,0,.6-.6.6-.3,1.1-1.1,1.5-1.4,3.4-2.3,5a7.568,7.568,0,0,1-1.5.1c0-.1,0-.2.1-.2-1-.8-1.7-2.5-3.4-2.3-.1.2.1.6-.1.6a3.126,3.126,0,0,0,1.1.9c.1.7,1,1.4,1.3,2.3a3.4,3.4,0,0,0,3.5-1.3c1.8-.3,1.6-2.7,2.5-3.6.5-.1.6.2,1,.2-.4,1.1,2.2,0,2.8.6-.4,1.3-1.2,1.7-1.8,2.7-2.2,1.3-3,3.4-5.7,4.6-.4.7-1.4.7-2.6,1.1-.9.3-1.5,1.3-2.1,1.4-.8.1-1.4-.5-2.2-.7-.2-1.3-1.6-1.3-2.5-1.9-.3-.7-.4-1.7-1.4-1.8-.9-1.3-1.3-3.1-2.3-4.3a6.5,6.5,0,0,1,1-4.9c1.2.2,2.5.2,2.8-.7,1.3.1,1.1-.6,1.5-1.4.7-.1,1.3-.9,2.1-.3-.2.8,1.1.8,1.6,1.3-.3.4.1.7-.1,1,.9,0,1.8,0,2.2.6,1.4-.8-.8-2.2-.9-2.7a4.013,4.013,0,0,0-1.5-.3c.1-.2,0-.2,0-.3-.5,0-.9,0-1.1-.2.1-.4.7-.9.6-1,1.8-.5,2.2,1.3,3.9,1.4-.3.4.7.4,1.1.5.2-.1.2-.2.2-.5a1.424,1.424,0,0,0-1.3-.9c-.1-.1,0-.2,0-.3-1.2-.4-1.4-1.7-2.5-2.2-.3-1.6.5-3.3,3.1-3.2-.1-.2.4-.2.6-.5,1.1-.1,1.4.6,2.4.7a1.81,1.81,0,0,1,.1,1.6c.3.5,1.7,1,1.5,1.1.4.3,1.9.1,1.7-.2.4-.2,1.2,0,1.4-.6a.623.623,0,0,0-.3-.5,5.022,5.022,0,0,1-2.1.2c.1-.4-.2-.4-.1-.8.4-.1.4-.6.7-.8a9.992,9.992,0,0,1-1.4-.8c.2-.4,0-.5,0-1-.1-.3-.6-.2-.9-.3.1-.5-.3-.5-.6-.6.4-.5-.2-.6.2-1-2.1-.8-3.3.9-4.3,1.4-2.7.7-3.9,2.7-5.1,4.6,0,.3.2.2.1.6-.9.5-.4,1.8-.8,2.7-.3.7-1.2,1-1.6,1.6-.3.5,0,1.2-.8,1.4a5.45,5.45,0,0,1-2.4-1.2c-.5-.5-.4-1.5-1.6-1.3,0,.2-.3.4-.8.3C267.8,144.8,267.3,143.6,267.6,142.2Zm-2,14.1c1-.8,1.2-2.5,2.6-1.7-.2.6.5,1.2-.2,1.6.5,1.8,2.3,2.5,3.1,4.4,1.2.3,1.4,1.3,3,1.4,0,.2-.1.2-.1.3,1.3-.2,1.1,1,2.4.8.2,1.3,1.4.1,1.8,1.1h1v.5c-.6.1-1.4,1.1-1.9,1.1-.2,0-1.4-.3-.6,0-.9.2-2.3,0-2.8.6-.9-.2-.4-1-1.5-1,.3-.4-.4-.5-.8-.6.5-.3-.5-.6-1.1-.6,0-.5-.4-.6-.9-.6,0-.7-.6-.9-.9-1.7-1.5.1-.4-1.7-1.8-1.9-.2-.2,0-.8-.5-.7.4-.4-.2-.6.2-.9a1.823,1.823,0,0,1-1-2.1Zm-24.8,29.1c.2-.2.2-.7.3-.9a.517.517,0,0,0-.7-.3c-.7-1.3,0-2.8-1-3.6.1-.5-.1-.8,0-1.1,1.3-.2,2.1-1.7,2.9-2.5,1.6.1.7-1.8,2.2-1.2-.5,1.4-.1,2.1-.8,2.8.3.2-.1.6.1.8-.7,1.3-.9,3.8-2.1,4.8.2.5-.4.9-.5,1.5C241,185.6,241.1,185.3,240.8,185.4Zm4.5,20.7c-.3-1.5-1.5-2.4-1.9-4-.1-.2-.3-.2-.5-.2-.4-2-1.6-4-1.5-6,0-.6.5-1.3-.1-1.8.1-.6.3-.9,0-1.4.6-1.3-.1-2.7,0-4.2,1.2-.8.9-2.6,1.8-3.3-.1-.6.4-.7.1-1.1,1-.2.5-1.2,1-1.7.4.1.5-.1.7-.2-.2-.5.4-.8.1-1,.6-.5.2-1.4.8-2a40.116,40.116,0,0,1,.6-4.1c1-1.5.7-3.7,2.2-4.7-.2-.4.3-.8.5-1.2-.2-.5,0-.7-.1-1.1,1.6-2.4,2.5-5.4,4.7-7.1,1.7-.9,2.8-2.9,5.9-2.7,0-.1-.2-.1-.3-.1.1-.3.7,0,1-.1,0-.1-.2-.1-.3-.1,1.2-.4,2.8.2,3.5-.5.4-.1.3.4.7.3.1,1-.1,2,.9,2.5.3,2,1.5,2.7,2.3,4.2.7,0,.7.6,1.1.8-.4.6-.1.9,0,1.5-.3.2-.7.3-.9.7.3.2.9.1,1.1.5-.4.2,0,.4-.2.8h-.3c-.1,1-1.6,1-1.7,2.3-.9.8-2.6,1.4-2.9,2.4-1,.3-1.8,2.3-3,2.1l.1-.2c-.3,0-.5.5-.8.3a1.13,1.13,0,0,1-.9,1.3.778.778,0,0,1-.8-.2c-.2,0-.2.2-.3.2.1.2.1.4.2.6.3-.1.9.1.9-.3,2.6-.4,4.6-2,6.4-3.2a14,14,0,0,1,1.6-1c.6-.4,1-1.4,1.9-1.3,0,.2,0,.4.2.3a10.724,10.724,0,0,1-1.4,4.6c-.4-.1-.5-.5-.9-.5a4.147,4.147,0,0,0-1.9,2.4.749.749,0,0,1-.5.1c-.3,1-1.6,2-1.9,3.1-1.3.5-1.6,2.1-2.6,2.5a2.251,2.251,0,0,1-1,1.6,14.6,14.6,0,0,1-5,3.5,38.759,38.759,0,0,0-3.1,2.6c-.9.2-1.2,1-2.3,1,.4.4-.9.5-1.5.6,0,.9-1.7.3-2.6.6-.4.1-.4.7-.8.6.2.4-.4.8.1.8,0,.2-.5,0-.5.3.1.2.3.2.5.2,0-.1,0-.1-.1-.1.3-.2,1,.2,1.1.5.6-.1.5-.8.6-1.1.5.1.7-.2,1-.2.1.5,1.4.1,1,0,.1-.3.6,0,.9-.1,1.4-1.2,4.4-1.7,5.5-3.3a3.872,3.872,0,0,0,3.1-2.4c1.2-.5,1.8-2.4,3.4-2.6a30.131,30.131,0,0,0,2.2-2.8,5.935,5.935,0,0,0,2.1-2.6c1.4-.9,1.1-3,3-3.5.3.6-.1,1.1-.3,1.6a5.16,5.16,0,0,0-.2,1.1c-.2.3-.6.5-.8.8-.1.4-.2.8-.3,1.1a10.894,10.894,0,0,1-3.5,4.4,1.213,1.213,0,0,1-.8,1.3c.4,2-1.7,2.7-2.5,4-1.6.8-2.3,2.5-3.9,3.3a9.889,9.889,0,0,1-2.9,2.5.367.367,0,0,1,.1.3,4.751,4.751,0,0,0-2.4,2,1.2,1.2,0,0,0-1.4.6v.1h-.9c.3-.6-.7-.9-1.1-.7-.1-.8-1.6-.2-2-.7-.6.2-.5.7-.7,1.2a4.317,4.317,0,0,0,2.6.9c-.2.8.9.5,1.5.6-.1.9,1,1.7,1.4,2.3a4.333,4.333,0,0,1,2,1.1c.5,0,.8.3,1.4.2.1.1,0,.2,0,.3.6-.1.6.4,1.3.2-.1.6.6.8,1.1,1.1,0,.8-.5.6-1.1.6-1.3,1.2-.3,3.8-2.2,4.8-.7-.5-1.9-.1-2.2-.8-.7.1-.7-.3-1.3-.3a1.268,1.268,0,0,0-.1-.6h-1.1a5.623,5.623,0,0,0-1.9-5.1Zm5,6.9c-.1.3-.2.6-.6.6a.483.483,0,0,1,0-.7c.4,0,.3.2.6.1Zm-4.2-.1a.823.823,0,0,1,1.2-.1l.1.1a1.2,1.2,0,0,1-1.4.3c.2,0,.3-.3.1-.3Zm-49.5-19c.3.3,0,.6-.5.6-.3,1.8-2,3.2-2.4,4.8-.8.2-.4,1.7-1.5,1.9.1.8-1.1,1.3-1.1,2.3-.5-.1-.5.3-.9.2.2.9,1.1,1.9,0,2.7-.5-.3-.8-.3-1.7-.2-.1-.8-1.8-.3-2.2-1.1a2.751,2.751,0,0,1-1.8-.2l.2-.1c-.7-.3-1.7-.4-2.5-.7-.2-.1-.2-.3-.3-.3-.3-.1-.6.1-.9,0-.2-.1-.2-.5-.5-.6-.8-.4-2-.4-2.6-.8.1.1-.2-.6-.7-.5,0-.8-.6-.5-1.1-.7,0-.6-.6-.6-1.3-.6-1-.6-.4-1.9-.1-2.4.6-.7,2.1-1.3,2.7-.1a1.421,1.421,0,0,0,.6.2c.1.1,0,.4.1.5s.4,0,.6.1.1.3.2.5c.1.1.5,0,.7.1a14.311,14.311,0,0,0,1.5,1.1c.3.2.7.1.9.2.4.4,1.5.6,1.6.9,1.3.1,1.8.9,3.2.9,0,.1-.3.1-.5.1.1.3.6,0,.9.1.8-1.8-2.4-1.9-3.2-3.4-.1,0-.1.1-.1.2-1.6-.5-2.8-1.2-4.3-1.6v-.3c-1.4,0-1.3-1-2.5-1.4-.3-.9-.3-1.3-.8-1.8.5-1.2,1.3-2,1.8-3.2a1.721,1.721,0,0,0,1.1-1.1,15.089,15.089,0,0,0,2.8-1.5c0-.3.6-.6,1.3-.6-.4-.4,1.4-.4,1.9-.6-.1-.3,1.4-.6,2.2-.8,0-.1-.1-.1-.2-.1,1.3-.6,2.9.1,4.3.1-.5-.4,1.7-.2,1.7,0,2.1-.3,3.5-.2,4.7-1.1a3.152,3.152,0,0,1,3.2-.9c.7,1.3-.6,2.7-.9,3.5C200.9,190.7,198.1,192.6,196.6,193.9ZM173.1,197c0,.1.1.1.2.1-.9.5-1.6,1.3-2.7.5,0-.1.5-.3.1-.5,2.1-.7,2.3-3,2.2-4.4a27.549,27.549,0,0,1,3-2.9c.6-.4,1.2-.7,1.7,0-.8.8-1.7,1.6-2.4,2.2-.2,1-1.1,1.3-1.5,2.5C173.8,195.1,174.4,196.7,173.1,197Zm-1.9-3.6c-.2.3-.5.2-.8.1,0-.6.2-.5.2-1,.5-.1.4.3.8.3C171.4,193,171,193.3,171.2,193.4Zm6.5-11.1c.6.4,1.2-.2,2.1.1.5.8.8,1.5,1.5,1.8-.1.5.2.6.5.7-.3.4-.1.4,0,.8-.4.1-.2.8-.8.8-.1.7-.3,1.8-1.6,1.8-.1-.1,0-.2,0-.3-1.4,0-1.5-.7-2.6-.9a10.267,10.267,0,0,1-.5-2.4c.7-.7.3-2.2,1.7-2C177.9,182.5,177.7,182.5,177.7,182.3Zm14.5-13.8a11.828,11.828,0,0,1,2.5-2.5c.5-1.4,1.1-2.6,2.7-2.8.5.7,1,1.3.7,2a10.95,10.95,0,0,0-1.1,1c-.4.4-.5,1.1-.8,1.5-.2.3-.8.5-1,.8l-1.4,1.4c-.5.6-.7,1.3-1.1,1.7-.5.4-1.6,1.5-2.2,2.1-.1.1.1.1.1.1-.6.6-1.4,1.4-2.3,2.2a4.144,4.144,0,0,1-1.8,1.9c.1.6-.3.9-1,1.1-.2.9-2,1.9-2.4,2.6-.1.3-.6,0-.8.1-.2-.3-.1-.6-.7-.7-.3-1.4,1.9-2.2,2.1-3.1,1.4-.4,1.9-2.2,2.6-3.1.3-.3.5-.2.7-.4.8-.9,1.3-2.2,2.6-2.9a7.472,7.472,0,0,1,2.5-2.5A.749.749,0,0,0,192.2,168.5Zm-3.6-20.3c.5-.5,1,0,1.6,0,.1.3.5.3.2.6.5-.1.5.4,1,.2-.3.5.4.5.8.7.3.7,1.8,1.3,2.3,2.3.3-.1.3.2.6.1v.3a4.759,4.759,0,0,1,2.6,3.1c-.4.6-2,1.4-2.1.3-.5,0-.6-.3-1-.2a3.839,3.839,0,0,0-1.5-1.3c-.3-.7-.2-1.1-1.1-1.1-.2-.4-.2-.5-.7-.7.1-.7-.4-1.1-1.3-1.2,0-.5-1.1-.7-1.5-1.1A6.889,6.889,0,0,0,188.6,148.2Zm14.5,10.1c0,1.4,0,2.8-1.1,3.5.5.3-.4.7-1,.6-.8-.8-1.8-.7-2.7-1.1a19.42,19.42,0,0,0-.2-2.4c.7-.2.4-1,.8-1.5.6-.7,1.9-.5,2.7-.9.1.5.6.5.9.7-.2.4.1.5.5.6-.1.3-.4.4.1.5Zm.9,11.1c0,1.1.1,2.1.2,3.2-.7,1.6-.2,3-.5,4.6-.1.4-.5.6-.3,1.1a.361.361,0,0,0-.4.6c-1.3,1.3-1.9,3.6-4.1,3.9-.1.4.4.1.2.5-1.6.6-2.6,1.8-4.9,1.7,0,.3.5,0,.7.1-.7.2-2.6.1-3.5.2,0-.6-1.6-.5-2.3-.7-.8-.3-1.8-1.1-2.3,0-.1.1.1.5,0,.6a2.533,2.533,0,0,1-2.7.8c-.7-1.3.2-2.1.5-3.1a11.381,11.381,0,0,0,1.9-1.9,23.72,23.72,0,0,0,2.3-3,16.372,16.372,0,0,0,2.8-3.1c1.9-2,3.3-4.6,5.8-6.4.6-1.7,2-2.1,3-3.6a4.4,4.4,0,0,1,1.6.2c.8,1.7,1.7,2.7,2,4.3Zm-.2-32.8a.79.79,0,0,1-.6.5c-.3-.2-.1-.2-.2-.6a1.949,1.949,0,0,1,.8.1ZM193,138.9c.5-.9,2-.7,2.5-1.5.1-.1-.1-.4,0-.5,0-.1.3.1.3,0,.1-.2-.1-.3,0-.6s.5-.6.6-.8c.1-.1-.1-.4,0-.5,1.3-1.7,2,.7.7,1.8.1.9-.6,1.3-.6,2.2a1.536,1.536,0,0,1-1.3.5c-.8.4-2,1.7-2.5.7C192.7,139.6,193,139.4,193,138.9Zm-20.1,19.2c.5-1,.2-2.1,1.7-2.4a2.622,2.622,0,0,1,.2,1.5C174,157.4,174,158.4,172.9,158.1Zm-3.4,11.2a3.379,3.379,0,0,0,.9-1.9c.8-.3.8-1.6,1.9-1.9.4-.6,1-1.2,1-1.9,1-.5.9-1.4,1.9-1.9.2-1.5,1.7-1.8,2-3.1a.6.6,0,0,0-.6-.3c.1-.3.1-.5-.3-.6a6.522,6.522,0,0,0-.2-2.4c.2-2,1.4-3.7,2.2-5.8.5,0,.6-.8.8-1a4.876,4.876,0,0,1,.7-.3,9.2,9.2,0,0,1,2.5-1.9c-1.3-.7-2.6.1-3.8.8a3.611,3.611,0,0,0-1.3,1.1c-1.5.3-1.1,2-2.4,2.3a4.136,4.136,0,0,1,.5-1.9c.1-.2.3-.2.5-.3.4-.5,0-1.1.7-1.5.3-.2.7-.2,1-.5.6-.4.8-1.1,1.7-1.3-.5-.4,1-.3,1.4-.6,0-.2-.3-.1-.5-.1.4-.3,1.9-.4,1.9.2.8-.4,4.3,1.2,5.4.3.2-.3.8,0,1.1-.1.1.3.4.4.6.6,1.3,0,2.9-1.3,2.8.5.2.5,1,.2,1.3.7,2-1,2.5-2.6,4-3.8-.1-.9.6-.8.9-1.5a6.3,6.3,0,0,0,3-.7c.3-.2.2-.7.5-.9.2-.2,1-.4,1.3-.8.1-.2-.1-.6.7-.5a7.67,7.67,0,0,1-1.4,4.4c0,.1.1.1.2.1-.9,1.1-1.7,2.6-3.4,3,.1.3-.5.4-.5,1a7.443,7.443,0,0,0-2.2,1.4c0,.3.4.4.1.7,1.3.3,1.9-.4,2.7-.8,0-.4.3-.5.7-.6a15.088,15.088,0,0,1,2.8-1.5c.8-1.2,3-.6,4-.6-.3.2-.1.5-.2.8s-.5.4-.7.7c-.1.1,0,.4,0,.6-.2.6-.7.8-1,1.4-.5.7-.6,1.6-1.4,1.9a.367.367,0,0,1,.1.3c-1.4.8-1.6,3.3-4,2.7a3.945,3.945,0,0,0-2.3-1.9,10.411,10.411,0,0,0-3.8-3.1c.1-.5-.5-.3-.7-.6a4.594,4.594,0,0,1-.7-1.6,2.372,2.372,0,0,0-2.7-.9c-1.7.4-3.7,2.4-4.6,3.7-.9,1.4-.9,2.9-1.4,4.3h-.6a4.643,4.643,0,0,1,.5-3.8c-.2-.5,0-1-.7-1.1-2.5,1.9-1.6,5.1-.6,6.7.4.4.8.1,1.4.3,0,0-.3.2-.3.1.3.4,1.6.5,2.1,1.3.7.1.3-.5.7-.6a7.491,7.491,0,0,1,.7-5.3c1.7.4,1.9,1.8,3.5,2.6a1.739,1.739,0,0,0,1.4,1.2c0,.7,1.3.7,1.4,1.6.7.3.5.8,1.3.9a1.721,1.721,0,0,0,1.3,1.3.443.443,0,0,0,.3.6c0,.7.1,1.3.1,2.1a18.673,18.673,0,0,0-2.6,3,4.815,4.815,0,0,0-1.5,2c-.6.1-.8.6-1,1.1-2.8,1.9-3.5,4.7-6.3,6.5a4.25,4.25,0,0,1-2.6,2.3c-.8-.4-1.5-1.3-2.6-1.1-.9,1.1.7,1.6,1.4,2.2-.1.9-.4,1.5-1.7,1.6-.9-1.6-2.8-2.5-3.5-4.1-.3,0-.5-.2-.8-.2.3-.5-.3-.4-.7-.6-.3-1.1-2-1.5-2.3-2.3-.5.1-.5-.3-.9-.2.1-.4-.4-.5-.9-.7a.28.28,0,0,0-.2-.5C169.5,170.1,169.5,169.7,169.5,169.3Zm-1.3,2.6c.5.8,2.1,1.1,2.5,2.2.7.1.8.9,1.6.9-.1.1,0,.2,0,.3,1.5,1.2,2.5,2.9,4.1,4,.5,1-.2,1.4-.8,1.9-.6.1-.8-.2-1.4-.2.2-.6-.5-.4-.4-1-2.2-2-3.6-4.2-6.8-5.2-.1-.2,0-.2,0-.3-.6-.1-1,.1-1.6-.2.6-1.5,1.1-2.6,2.8-2.4Zm-10.1,22.6c-1-.6-1.5-1.7-2.5-2.4.4-.4-.4-.7.1-.9,0-.1-.2-.2-.3-.2.2-.5-.1-1.3.6-1.6-.4-1.6.4-3.4-.6-4.7.3-.2.4-.8.8-.9-.2-1.4,1.9-2.4,2.5-3.3.2-.2,1-.4.8-.6a21.1,21.1,0,0,0,2.3-1.9,4.08,4.08,0,0,0,1.5-2.1c1-.4.9-1,1.7-1.6.3.1.2.5.6.6.1.2-.1.3-.1.5.2.2.8.4.6.7.4-.2.7.4.8.5.2.1.4.1.6.2.4.3.6.9,1,1.3.1.1.4,0,.6.1.1.1,0,.4.1.5s.6.1.7.2c.3.2.4.8.7,1a9.13,9.13,0,0,1,1.3.8c.2.3.3.7.6.9.4.4.5.7,1,.9-.1.7.6.8.9,1.3v2.5c-.9.6-1.4,1.6-2.4,2.2-.2.5-1.8,2-2.6,1-5,.6-8.2,3.1-11.3,5Zm22.2,18.9h-.2c-.1,0-.2-.1-.3-.1-1.1-.3-2.1-.7-3.1-1-.3,0-.5-.1-.7-.1l.1-.1a59.093,59.093,0,0,1-11.4-5.3c-.2,0-.3,0-.4-.1a14.311,14.311,0,0,0-1.5-1.1,2.088,2.088,0,0,1,.8-1.6l1.1-2.2c1.2-.7.7-2.8,2.2-3.6.9.2.6.8,2,.8.1.7,1.1.4,1.1,1.1,1.9.4,2.2,1.7,3.6,2.5.4-.1.5.1.9.1-.5.5,1.3.3,1.2,1,1.2-.1,1.1.6,1.9.7,0,.3.5.2.2.5.6,0,.9.3,1.5.3-.2.5,1,.4,1.4.6.6.5,2.5.7,3.2,1.5.7.2,2.1-.1,2.5.7,1.5-.2,2.2.5,3.6.3-.2.5,1.5.3,1.3.8a14.921,14.921,0,0,1,2.1.2c.2,1.4,1.7,1.2,3.1,1.3,0,.1-.1.1-.2.1a1.971,1.971,0,0,0,1.5.3c1.2,1.2,3.7.8,5.5.9a1.163,1.163,0,0,0,1-.2,2.622,2.622,0,0,0,1.5.2c0,.1-.1.1-.2.1,1,.2,2,.4,3,.7,1.8.3,3.7-.1,5.6.3.1,0-.4.2-.4.1a28.28,28.28,0,0,0,4.1.3c2.6.2,5.6.1,8,.1,0,.2.8.3,1.5.3,2.8.1,6.1-.2,9.2-.1,0-.2-.4-.1-.6-.1a57.675,57.675,0,0,1,7.2-.1c-.9.4-1.5,1.2-3,1.1,0,.1.2.1.2.1-.7.4-2.5.2-3.4.5,0,.2.3.1.5.1-2.2.1-3.6.6-6,.7.6.4-1,.2-1.7.3a30.341,30.341,0,0,1-4.2.6h-1.3C204.8,218.6,190.3,216.3,180.3,213.4Zm46.5,7.3c.5.3-.5.5-.9.6.7.2-1.5.6-1.9.8-1.2.5-4.1.6-5.5,1.1-.1,0-.1.1,0,.1a34.414,34.414,0,0,1-4.5.5.192.192,0,0,0,.3.1c-.6.4-2.8.2-3.9.5-.2,0,.1.2-.1.2-1.5.5-4.8-.2-6.9.3.5.1-.1.4-.6.5-1,.2-2.7-.2-4.1.1a9.737,9.737,0,0,1-2.4.2c-.5-.1-2-.8-1.5-.7-1.6-.5-3.3.1-4.3-.8,1-2-.1-4.8,1.6-6.3.2-.3.9,0,1.4-.1,0,.1-.2.1-.3.1a17.683,17.683,0,0,0,5.1.5c2.2.8,4.6.3,6.7.6a15.537,15.537,0,0,0,2.3.5c3.2-.2,7.3-.2,10.9-.1a10.679,10.679,0,0,0,2.5-.3c2-.3,4,.2,5.1-.6,1.3-.2,1.9.4,3.2.2,0-.2-.5,0-.7-.1.6-.4,1,.3,1.7.1.6-.6,2.5-.4,4.1-.6.1,1-1,.7-1.4,1.1-.9-.2-1,.5-1.9.3a3,3,0,0,1-1.8.6c.5.2-1.5.6-2.2.6Zm-.6,74.3a25.734,25.734,0,0,1-9.9,1.6c-.3,0-.7.2-1,.1-1.5-.3-2.3-1.5-3.5-1.5-.3-2.1,2.2-2.3,3.6-3.2.6-.4.8-1,1.5-1,.1-.2.5-.3.6-.5.4,0,.3-.3.6-.4.2-.7,2.1-1.4,3.2-.9.8-.4.6-1.3,2.3-1,.4-.8,1.5-1.6,2.4-.6.3,1.3-.2,2.3.3,3.6l.2,1.1a11.759,11.759,0,0,1-.3,2.7Zm.5-11.4c0-.1.1-.1.1-.2-.8-.3-1-1.2-1.9-1.4a1.989,1.989,0,0,0-.5,2.1,1.946,1.946,0,0,0-1,1.2c-1.7.1,1-.8-3.6,1.5-1.6.7-1.7.3-1.6.7-1.3.2-2.1.2-2.4,1.5a5.823,5.823,0,0,0-2.6,2.3c-1.9,0-2.4,2.1-4.2,1a34.959,34.959,0,0,0,.7-6.5c.1-1-.5-2.8.2-3.5-.1-.4-.1-.4.1-.7,0-.2-.1-.2-.2-.2.2-3.4-.4-6.1-.3-10,0-.1-.1-.1-.2-.1a10.445,10.445,0,0,0-.8-4.2c-.3,0-.2-.2-.5,0-.5,1.3-.2,2.9-.1,4.2-.9,1.2.1,2.3-.1,3.9-.1,0-.6.2-.2.3-.7.3-2.3,0-2.2-.5-.6,0-1-.2-1.7-.2a.684.684,0,0,0-.7-.7h-.1c.2-.4-.7-.5-1.2-.6-1-1.1-2.7-1.5-3.9-2.4a4.455,4.455,0,0,0-1.8-1.8c.3-.8-1.1-1.3-1.5-1.9,0-.1.2-.2.1-.2a2.836,2.836,0,0,0-1-.9c-.2-.9-1-1.5-1.6-2.4,0-.2.1-.2.1-.3-1.1-1.4-1-3.7-2.6-5.1-.3-.8-.4-1.9-1-2.4.3-1.3-.8-1.9-1.6-3.1-.2-.3-.1-1.1-.8-1.1,0-.4.2-.4-.2-.6,0-.2.3-.6-.1-.6a3.293,3.293,0,0,0-.8-2.5,1.068,1.068,0,0,0-.3-1.1,25.028,25.028,0,0,1-.4-5.5c.6-.9.5-2.4,1.2-3.4a43.862,43.862,0,0,0,14.9.2c.1,0,.1-.1,0-.1,1.2-.1,2.3-.4,3.5-.5,0-.1-.2-.1-.2-.1,1.7-.4,3.1,0,3.9-1,.3-.4.3-1.9,1.3-1.1a3.494,3.494,0,0,1-.5,1.3c.6,1,1.2,1.2,2.7,1.4,0,.1-.1.1-.2.1,1.3.5,2.1,1.4,3.4,1.6a4.461,4.461,0,0,0,2.6,1.4,7.26,7.26,0,0,0,3.1,1.7c-.2.4.9.5,1.4.6.1.6.9.5,1.6.6-.4.3.8.6,1.5.6.6.9,2,.9,3.3,1.4,0,0-.2.2-.2.1a7.336,7.336,0,0,0,2,.5c-.1.5,1.2.5,1.8.6-.7.3,1.2.5,1.8.6,0,.7,1.8.6,3,.6.9.9.1,1.9.2,2.7-.5.4-.5,1.8-.8,2.7a24.011,24.011,0,0,0-1.2,3.8c-1.6,2-.7,4.9-1.6,6.8a55.524,55.524,0,0,1-3.3,13.8c-.4.4-1.2.4-1.3,1.1-.5.2-1-.3-.9-.6a1.456,1.456,0,0,0-1.6,1.3,1.268,1.268,0,0,0,.1.6c0,.3.4.2.7.2.1.3.4.8.1,1,.4.3.9.6,1.4.9-.2.3-.5,1-1.3.6Zm-11.8-48.9a7.841,7.841,0,0,0,4.2,3.4c-.1.4.7.5,1.3.6a1.678,1.678,0,0,0,1.4.6c-.2.5.6,0,.5.5.6,0,1.4.2,1.2.6,3.1.4,4.9,2.1,7.9,2.6-.1.2,0,.2,0,.3.8-.1,1.1.3,1.9.2-.2.4,1.1,1.1.8,2.3a.215.215,0,0,0-.2.2c-1.4,0-1.8-1-3.4-.9.5-.4-1.1.1-.7-.5-.7,0-1.8,0-1.6-.6-.5,0-1.4-.1-1.1-.6-.6.1-.9-.3-1.5-.2.1-.4-1-.5-1.6-.6-.3-.9-2.3-.8-2.4-1.5-.7.1-1-.3-1.6-.3.1-.4-.9-.6-1.7-.6a7.956,7.956,0,0,0-2.5-1.1c-.1-1-1.6-1-2.1-1.4-.1,0,.2-.1.2-.1a2.768,2.768,0,0,0-1.3-.3c.2-.7-2.5-1-3.2-1.7a2.851,2.851,0,0,1,3.1-1.1c0,.1-.1.1-.2.1.7.5,1.6-.2,2.6.1Zm-5.8-1.4c-.7-.1-1-.6-1.6-.7-.4-1.9.9-3.4,2.7-2.3a2.7,2.7,0,0,1-1.1,3Zm21.8,65c-.4-.1-.8-.7-1.3-.8-.8-.2-1.1.1-1.4-.5.6-1.8,1.3-4.1.6-5.3a17.092,17.092,0,0,1-1-5h0v-.4a12.529,12.529,0,0,1-.1-1.4,3.091,3.091,0,0,0,.2-.8c.3.1.3-.2.7-.1.4.8.3,1.8,1.4,2.3a4.742,4.742,0,0,0,1.3,2.4,1.436,1.436,0,0,0,.5,1.8.1.1,0,0,1,.1.1c-.1,1.1.7,2-.2,2.7,2,1.3,0,3.5,1.5,4.8A2.677,2.677,0,0,1,230.9,298.3Zm6.8-3.1c0,.5.1,1.2-.4,1.3-.3,0-.3-.3-.5-.5l-.6-.1v-.1c-.8,0-1-.6-.7-1.3l-.5-.9c-.1-.1-.3-.1-.4-.2.1-.1.3-.5,0-.6a1.268,1.268,0,0,1,.6-.1l1.4-.2a8.247,8.247,0,0,1,1,2.6.1.1,0,0,0,.1.1Zm1.7-18.8a7.715,7.715,0,0,1-.7,2.6,10.908,10.908,0,0,1-.6,1.1c-.5.6-1,.4-1.4,1,.4.1.2.7.1,1a1.268,1.268,0,0,0-.6.1c-.5,2-.7,3.7-1.5,4.9.3.4.1.6.4,1-.8.2-.3,1.1-1.3,1.3-.1-1.2-.3-2.8-1.4-3.4.4-.5-.3-1.5-.9-1.7-.3-1.2-1.8-2.3-1.1-3.5-.4-.1.1-.5-.2-.7,1.2-1.2.7-2.9,1.7-3.9,0-.2.1-.4-.1-.5.8-2.3,1.2-5,2.1-7.4-.2-.8.3-1.3.5-1.8.2-1-.1-2.4.6-3.2-.4-.8,0-1.2.3-1.8-.2-.3-.6-.4-.5-1,.8.2.8-.4.8-.7a.6.6,0,0,0-.6-.3c.1-.4-.1-.4-.1-.7h.9a10.89,10.89,0,0,0,.8-3.1c.2,0,.2-.1.3-.1.2-2.3,1.1-4,1.3-5.9.4-.2,1-.8,1.2,0,1.3-.2,2,.3,3.1-.1-.1.4.5.4.2.7.8.2.6-.6,1.4-.4.2.3.2.2.1.6a3.4,3.4,0,0,0,1.4-.2c.2.4.6.5.9.8.4.1.3-.4.7-.2.3.4.3,1.3,1.2,1a6.162,6.162,0,0,1,0,3.3c.1.3.4.3.7.3.4,1.3-.4,2.8-.1,3.9a6.428,6.428,0,0,0-.7,3.1,1.423,1.423,0,0,0-.5,1.6,10.11,10.11,0,0,0-1.6,3.3c-.4.9-5.5,7.3-5.5,7.3-1.5-.1,0,1.3-1.3,1.7Zm7.5-34.9a2.389,2.389,0,0,1,.9.3c0,.2.1.3.2.3-.1.5-.1,1.1-.2,1.4-.4.1-1-.2-.8-.3-3.2-.2-8.1-1.3-9.7-3.5.1-1,1.3-.5,1.8-.2.4-.3.3-1.2.7-1.6a7.72,7.72,0,0,1,1.5.2s-.1.2-.2.1c1.7,1.2,4.9,1.1,5.8,3.3Zm-7.8,2c.6,1,1.7-.2,2.4.9.3,0,.3-.4.6-.3.4.2.4.6,1.1.7.3-.1-.1-.2.1-.3,1.8.1,2.3,1.5,3.6,2,0,.6-.3.7-.3,1.4-.3,0-.7.1-.6-.3a29.144,29.144,0,0,1-6.6-.1c-.1-.4-.8-.6-1.6-.6-.2-.6.6-2.2-.9-1.8-.2-.2-.2-.5-.5-.6.6-1.3,1.6-.8,2.7-1Zm11.1,3.3c.4.5-.1.9-.2,1.6h-.7c-.3-1,.7-1.8.9-2.8.5,0,1.3.4,1.4-.2.2,0,.3.1.5.1,0,1.1-1.3.9-1.9,1.3Zm1.5,6.4c-.1.2-.1.5-.2.6-.6,0-.2-1.1.2-.6Zm2.4,5.9a14.622,14.622,0,0,0,1.6,3.6c-.1.9.7,1.5.8,2.5a7.613,7.613,0,0,1-.3,2.1,3.7,3.7,0,0,1-.8,1.8,10.9,10.9,0,0,1-.3,2.6c-.1.2-.3.3-.3.5a34.475,34.475,0,0,1-1.2,4.6,15.175,15.175,0,0,0-.9,2.8c-.1.4-.5.6-.6.9-.1.2.1.4,0,.6,0,.1-.3.1-.4.1-.3.5-.3,1.3-.6,1.5-1,.7-3.6.3-4.4.1l-1.2-.1c-1.9-.3-3.6,0-5-.8-.2-1,.7-2,.7-3.2,1.3-1.9,2.3-4.5,3.5-6.6,1.3-.6,1.2-2.6,2.5-3.1.9-1,1.9-3,3-4.2,0-.3-.1-.7.2-.7-.1-1.8.7-3.5.9-5.4.1-.8-.2-1.6.3-2.3,1.3.8.6,2.4,2.5,2.7Zm3.4-21.1a1.136,1.136,0,0,1-.3.8c-.1.1-.2.3-.3.4a5.936,5.936,0,0,1-1.8,1.3H255a14.225,14.225,0,0,1-2.1,1.1c-1.8.4-2.2-.6-3.4-.8-.4-1.4-1.8-1.8-3.1-2.4a.955.955,0,0,0-1.1-.6,1.349,1.349,0,0,0-1.5-.9c-.3-.5-.5-1.1-1.6-.9-.1-.4-.6-.7-1.5-.6a.885.885,0,0,1,.2-1.1c.2-.1.5.1.6.3.3-1.1,1.4-1.9,1.5-2.7a2.2,2.2,0,0,1,.8-.1,2.958,2.958,0,0,1,1-.2.758.758,0,0,0,.2-.4,5.022,5.022,0,0,0,2.1.2c0,.1.1.3.1.4,2.3.5,5.6,2,10.5,5.6a1.072,1.072,0,0,1-.2.6Zm30.4-6.2c-1.6,0-1.7,2-2.2,2.7a3.1,3.1,0,0,0-1.3.6,3.819,3.819,0,0,1-.9.9h0a4.813,4.813,0,0,1-1.6,1.2,13.335,13.335,0,0,1-4.3,1.7c-.1.1-.2.1-.3.2-.1,0-.2,0-.2-.1a25.923,25.923,0,0,1-4.8.4c-.1,0-.1.1-.2.1s-.3-.1-.4-.1a6.761,6.761,0,0,1-1.2-.1c-2.2-.6-3.9-.6-5.7-1.1,0,0,.1-.2.2-.1-.4-.2-1.6-.3-2.1-.5,0-.1.2-.1.3-.1-.5-.2-1.1-.3-1.6-.5,0-.1.1-.1.2-.1-1.5-.7-2.5-1.9-4.4-2.2.4-.4-.5-.1-.1-.5-.4.1-.6-.2-1-.1.1-.7-.9-.3-.8-1-2.1-.7-3.4-2.2-5.6-2.5-.1-.1,0-.2,0-.3-2.4,0-4.3-1-6.3-.2-.2-.6.6-1.3,1.1-1.5,0-.2.5-.4.8-.6,1.1-1.5,3.9-1.4,6-1.4,0,.1-.1.1-.1.2a2.622,2.622,0,0,0,1.5-.2c-.5-.5-.5-1.7-1.5-1.4.1-.5-.3-.6-.6-.7.2-.2,0-.3,0-.6,1.2-.1,2.1-.7,3.6-.5,0,.1-.1.1-.2.1,1.3.6,4.2.4,5.5.6.2,0,.2.1.3-.1-.1.5,7,.8,6.6.1,4.1.2,5.7-1.6,8.4-3,0-.1-.1-.1-.2-.1a1.521,1.521,0,0,0,1.2-1.6c-.4-.1-.5.1-.7.2-2.4-.8-2.7,1.3-4.9,1.3a4.306,4.306,0,0,1-2.2.9h-.1c-3.7,1.7-12.8-.1-15.4-.7h-.3c-.9-.6-1.7.3-2.6.2a1.8,1.8,0,0,1-1.5.7c-.8.9-1.1,1.8-1.7,2.5h-.9c0,.1.2.1.2.1-.6.3-1.2,1.2-2.3,1.3a7.551,7.551,0,0,0-1.1,1.4,1.949,1.949,0,0,0-.8.1c-1,1.2-.9,2.6-2.2,3.5.4,1.2-.6,2.1-.8,3,0,.1.2.2.1.3a6.191,6.191,0,0,1-1.1,1.7c-1,.7-2.1.3-2.9,1-1.2,1-1.4,3.1-2.9,4.1-1.1-.4-1.8-1.1-3.2-1.1.1-.4-.2-.3-.2-.5-1,.2-1.9-.7-2.7-.7-.1-.2-.4-.2-.5-.5a16.812,16.812,0,0,1-3.2-.9s.3-.2.4-.1c-.3-.3-1.4-.2-1.7-.5,0-.1.2-.1.3-.1-1.8-.5-2-1.7-4-1.6,0-.4-1-.7-1-1.1s.8-.8,1.1-.9c1.3-.6,4-1.5,4.7-1.9.3-.3,1.5-.2,1.4-.6.4-.2,1.5-.3,1.4-.6,2.7-.6,4.7-1.8,7.3-2.7,1.1-.8,4.4-1.7,5.7-2.6a8.8,8.8,0,0,1,1.5-.5c0-.1-.2-.1-.2-.1,2.3-1.5,6-2.8,8.5-4.1-.5-.2.4-.4.8-.6,1.1-.7,2.1-2.3,4-2.3,0-.1-.2-.1-.2-.1,1.6-.9.1-1.9-1.3-1.4-.2.3-.8,0-1.1.1-1.1.6-2.6.9-3.3,1.9-2.5.7-3.7,1.9-5.6,3.2a35.43,35.43,0,0,1-5.2,2.5,1.612,1.612,0,0,1-1.3.6c.4.3-.7.6-1.2.6.6.3-.7.4-1.1.6-.2.1-.6.7-1,.8-.2.1-.6-.1-.8,0-.6.2-1.6.9-2.4,1.1a9.017,9.017,0,0,0-2.2.6c0,.1.1.1.2.1a40.481,40.481,0,0,0-4.9,1.7c-.7.3-1.4.2-2.1.5-.9.3-1.4,1.3-3,1.1,0,.1.2.1.2.1-1.2.6-2.3,1.4-4,1.3a3.051,3.051,0,0,1,0-2.3c-.4-1.5-1.1-1.7-2.3-2.3-.1,0,.2-.2.2-.1-.5-.6-1.5-.1-2.4-.3-2.3,1.8-2.2,4-2.4,6.9-1.4,0-2.4.3-3.8.3,0,.1.1.1.2.1-1,.1-1.9.4-3,.5.5.1-1.5.9-2,1-1,.2-2.5-.1-3.5.3-1.3.5-1.9.2-3.1.2-.6,0-1.5.7-1.6-.2-.9.1-1.8.1-1.7-.6-1.3.2-1.7-.5-1.8-1.4h0c-.7-2.7,1.7-6.9,2.7-8.5a1.794,1.794,0,0,1,.5-.7c1.2.8,1.2,2,3.4,1.7-1,.4,2.3.2,3.2.2,2.5,0,6.8.4,7.9-.1,3.9-.3,7-1.4,10.9-1.6,0-.1-.2-.1-.2-.1a19.2,19.2,0,0,1,4.1-.7c0-.1-.2-.2-.2-.1.8-.5,2.3-.2,3.4-.5,0-.2-.4-.1-.6-.1.3-.2,1.8-.2,2.4-.5,0-.1-.1-.1-.2-.1,3.3-.4,5.5-1.8,8.6-2.2-.4-.3.7-.6,1.4-.6.2-.1.2-.3.3-.4,2.8-.1,4.3-1.7,6.8-2.1,0-.1-.2-.1-.2-.1.6-.6,2.5-.7,3.5-1,.2-.2.2-.6,1-.6,0-.1-.2-.1-.2-.1a17.34,17.34,0,0,1,7.1-1.8,3.21,3.21,0,0,0,.2-1.7c.8-.3,1.2.5,2.2.3.4.5.1,1.6.2,2.1a17.138,17.138,0,0,0,15.3,2.7c0-.1.1-.1.2-.2.3,0,.5-.1.7-.1a17.8,17.8,0,0,0,2.9-1.2h0a2.792,2.792,0,0,0,.6-1.8,8.737,8.737,0,0,0,2.8-4.3c.6-.2,1.2.4,1.9.3,0,.5.5.6.5,1.1.4.1.4-.1.7-.1.4.4.2.8.6,1.4,1.3,0,1,1.1,1.4,1.8.7-.1.9.5,1.5.2.2-.3.5-1.4,1.6-1.1,1-1.1,2.2-3.3.7-4.7,0-.7-.5-1.3-.2-2.2a25.133,25.133,0,0,1-2.8-8.1c-.3-1.9.1-4.3.1-6.6a.443.443,0,0,0-.6-.3c-.5.8-.5,1.4-1.3,1.9.3.3-.1.6.1.9-1.1,1.9.6,5.3-2.1,6.4.7.9.1,2.4,1,3.3.2,1.9,1.8,3.5,2.6,5.4,1-.1.7.5,1.4.7-.2,1,.2,2-1,2.3a1.375,1.375,0,0,0-1.3-.6,7.494,7.494,0,0,1-.5-1.6c-1.4-1.8-3.2-2.9-4.9-5-.6.1-.7-.3-1.3-.2.5-.6-1.6,0-2.2-.5.1-.9-.1-1.6-1.1-1.8a2.879,2.879,0,0,1-.1-1.3,4.6,4.6,0,0,1-2.2-2.9h.1a4.707,4.707,0,0,0-.4-1.6c-.2-.3-.5-.5-.7-.8-.6-1.1-.7-2.6-1.6-3.2.2-.4-.3-.5,0-1,.4.2.2.2.8.1.1.5.7,1,.5,1.5a11.355,11.355,0,0,0,2.3,1.5.959.959,0,0,1-.2.9c1.4,1.2,2.8,1.6,3.6,3.2,1.2-.1,1.6.5,2.5.7.2.3-.1.5.3.7,1-.6.7-2.2,1.5-2.7-.1-1.4.5-2.8.5-4.1,1.6-.7,1.9-2.6,2.6-3.1a14.068,14.068,0,0,0,3.9-3.4,3.748,3.748,0,0,0,1.7-1.6c.8-.2.9-.8,1.5-1.3.2,0,.1.3.5.2-1.1,4.3-1.4,7.7-2.2,12.1.4.2.4.7.6,1-.4,0-.4.5-.6.7.8.5-.2,1.7.7,2.2-.4.5.2.5.2,1a1.909,1.909,0,0,0,.8-.3c-.1-.9.3-1.7.1-2.7.5-1.1.1-2.3.2-3.6.3-2.2,1.4-4.5,1.4-6.7a6.546,6.546,0,0,0,.5-3.1c.1-.8.6-2.1.7-3,0-.2.3-.3.3-.3a7.5,7.5,0,0,1,.2-2.2c.1-.2.4-.2.5-.3.4-.9.8-1.8,1.1-2.7.3-.6.9-.7.9-1.4.4-.1.5.1.7.2-.8,1.6-.1,2.4-.7,4,0,.6.5.6.6,1,0,.3-.3.5-.3.8a8.662,8.662,0,0,1,.2,1c0,.5-.9,1,0,1.4.2,0,.2-.1.5-.1,1-4.4,2-9,5.2-12.1a.749.749,0,0,0,.5.1c-.1,1.9-1.3,2.3-1,4.1-1.2.9-.8,3.2-1.5,4.4a5.439,5.439,0,0,1,0,3.1c-.2,1.6.2,3.6,0,5.2-.2,1.8-.9,3.4-.9,5.2-.4-.1,0,.4-.3.6.1.4.4.6.3,1.1-.4-.1-.4.2-.6.2,0,.1.3.4,0,.5.2.2.6.1.7.3,0,.4-.1.3,0,.7-.2.1-.3.3-.7.2.4.4.2.6.6.9a33.048,33.048,0,0,0-1.1,6.9c-.6,1.6-.5,4.3-1.1,5.6a1.361,1.361,0,0,1-.3,1.7c.3.1.1.6.3.8-.9,2.6-1.3,5.6-2.4,7.6,0,.3.2.2.1.6-1.2,3.8-2.5,6.9-3.7,10.2Zm3-1.1c.2-3.1,2.6-5.7,2.5-8.8a1.381,1.381,0,0,1,.3-.4,16.851,16.851,0,0,1,1.6-6.6c-.1-.1-.1-.3-.2-.3a75.776,75.776,0,0,0,2.4-13.3,6.591,6.591,0,0,0,.6-3.9c.4-2.6,1.4-6.5,1-9,.6-2.6.7-5.8,3.1-7.5-.1-.3.2-.2.1-.6.3,0,.7-.2.7-.5h0c.3-.1.4.2.7.2a5.422,5.422,0,0,0,.6,2.5c.2,1.1-.5,2.2.5,3-.2,1.3.3,2.2-.3,2.8a1.913,1.913,0,0,1,0,1.8c.3.1.3.7.6.9-.6,1.3.3,2.9-.6,4,.5,1-.5,1.8.3,2.7-.3,1.3,0,2.9-.2,4.3-.1.5-.1.1,0,.6.1.3-.3.8-.2.9.1.4.5.6.6.9a10.868,10.868,0,0,1,.1,1.8,12.817,12.817,0,0,1-.5,2.7,10.868,10.868,0,0,1-.1,1.8q.15.3.3.3c-.2,2.6-.1,3.9-.3,6.4.4,0,.2.6.6.7-.2.9,0,1.5-.2,2.3-.1.5.2,1,.1,1.5-.1,1.2-.6,2.2.3,3.5a7.236,7.236,0,0,0,.5,4.8,20.319,20.319,0,0,0,1.5,6.9c.1.1.2.2.3.2-.1.6,0,1.7.8,1.7.7.9.1,2.2-1.4,1.6.6-.6-1.5-.1-1.4-1-.6.1-1.2-.2-1-.6-1.3,0-1.3-1.2-2.3-1.5,0-.1.2-.1.3-.1a2.663,2.663,0,0,0-1.2-.3c0-.6-2.1-1.6-2.3-2.3-.4.1-.3-.2-.7-.1.2-.2-.3-.6-.7-.6-.1-.4,0-.5-.6-.6.3-.8-1-.5-.6-1-1.7-.8-3.6-1.1-5.6-1.8Zm-4.8,18.6c1.1-.1,1.6.6,2.4,0,.5.9,1.3-.1,2.2.4,1.6-.5,2.9-.2,4.7-.4v.2c.5-.5,2.1.2,2.4-.7,0-.5-.2-.6-.7-.8,0-.4.3-.5-.2-.6l.3-.3c.1-3,.8-6,.5-9.2.8-.9,1.4.7,2.4.7,0,.6.6.9,1.1,1.1.1.2-.1.5-.3.6h-.1a3.1,3.1,0,0,0,.6,1.3c-.3,1.6-1,3.5,0,4.9-.2.8-.7,1.3-.2,1.9-.8,1.7-.7,3.7-1.5,4.9a80.4,80.4,0,0,1-8.5.2c0,.3-.8.6-1.3.8-.5-.9.9-2.1,0-3.1-.4-.1-1-.2-.8-.6-1.3-.3-2,.5-2.8.3a1.439,1.439,0,0,1-.2-1.6Zm1,4.7c.2.6-.4.9-.5,1.6-.5.1-.5-.2-.8-.2.6-.6.4-1.4,1.3-1.4Zm-1.2,1.9c.3-.1.3.2.6.1-.1.5,0,1.3-.7,1.3a1.071,1.071,0,0,1,.1-1.4Zm-21-7.6h0a5.583,5.583,0,0,1-.8.5c-2,.8-1.1,4.9-2.6,4.6s-3.2-6.5-3.2-6.5c2.7,2,6.6.1,6.6.1l6.9,1h0a13.2,13.2,0,0,0,2.8.2c-.5.3.3.2.7.2-.2.2-.1.4.2.3,0,1.3-1.2,2.4-1.4,3.5,0,.3.3.6.2.8-.1,1.1-.9,1.1-2.3,1-.8-.8-2.1-.6-3.3-.9,0,0,.1-.2.2-.1-.3-.2-1.6-.2-1.6,0-.2.3-.4-.2-.7-.2a7.687,7.687,0,0,1,.3-3h0C266.8,248.3,264.9,248.3,264.9,248.3ZM263,276.2c.1-.7-.2-1.1,0-1.6.3-.8,1.1-1.3,1.6-2.5a10.691,10.691,0,0,0,.3-4c.8-.6.3-1.5,1.2-2.2,1.1-3.9-.8-6.4.7-9.7-.1-.5.1-.6-.1-1,.3-.5,1.4-.3,2.2-.3v.3a21.738,21.738,0,0,0,3.6.2c.5,1.6-.9,2.9-.5,4.6.2.7.4,1.6.7,2.5a3.805,3.805,0,0,1,.5,1.5c-1.2,1.2-.4,3.4-.6,4.6l.3.3a76.67,76.67,0,0,1,.2,8.3,10.707,10.707,0,0,1-1,3.9,15.525,15.525,0,0,1-3.1.3c0,.1.2.1.3.1-2.3.3-3.5.9-5.9.9-1.5-1.2-.6-3-.7-4.4,0-.1-.2-.3-.2-.3C262.6,277.2,262.9,276.8,263,276.2Zm10.9,16.4a5.826,5.826,0,0,1-1.5,1.1c-.4.1-.9-.2-1.4-.2-.9,0-1.7.6-2.6.6a2.944,2.944,0,0,1-2,.6c0,.5-1.1.2-1.6.3a.367.367,0,0,1-.1-.3h-1.3c-.3-.1-.3-.6-.6-.7,1-2.2.6-4.3,1-6.4a3.491,3.491,0,0,0-1.2-1.5c.1-3.4,3.8-1.7,6.9-2.5,0-.1-.1-.1-.2-.1,1.2-.4,3.9-1,3.1,1.4.2,1.3,1.1,3.1,1.3,4.4.1.5-.1,1.1,0,1.6s.6,1.1.2,1.7Zm24.8-27.2c-.2,0-.2.1-.3.1-.4,0-.1-.7-.7-.5,0-.5-.2-.5.1-.8.4,0,.5.3.9.2Zm-7.1-3.2c-.5-.4-1.9,1.4-1.6,2.7.1.2.3.1.4.2s-.1.4-.1.3c.2.5.6.7.6,1.1-.8.6-1.1,1.8-2.6,1.8.2-.5-1.3-.2-1.6-.6-.8.2-1.1,1.3-1.5,1.8-.3.4-.7.3-.8.7a4.628,4.628,0,0,0,.9,3,24.281,24.281,0,0,1,2.4,3.2c.4-.1.5.2.9.1a1.244,1.244,0,0,0,1.4,1.1c1,1,1.3,1.9,2.6,2.4,1.3,1.5-.5,3.4-.1,5.2,1.1,1,.4,3,.8,4.8a3.313,3.313,0,0,1-2.4,0c.4-.8-2.8,0-3.4-.7,0-.1.1-.1.2-.1-.3-.3-1.1,0-1.4-.2-.1-1.9,1-3.1.8-4.6-.2-1.4-2.1-1.9-1.7-3.8-.7-1.2-.3-2.5-1.2-3.2.2-.6-1.1-2.2-1.4-3-.3-1.1-.1-2.1-.3-3.3a1.456,1.456,0,0,0-.6-.9c.2-.6-.2-1.1-.2-1.8,0-.6.5-2.3-.6-2.3-1,0-.7,1.4-.7,1.8,0,.5-.2,1-.2,1.6,0,2,1,4.9,1.4,6.6.4,0,.2.8.7.8a2.875,2.875,0,0,0,.7,1.8,1.615,1.615,0,0,0,.7,1.8.367.367,0,0,0-.1.3c.8.8.8,2.3,1.5,3.2.2,1.6-.5,3.3.4,4.3.1.5-.2.5-.2.8a12.064,12.064,0,0,0-4.3,1.5c-.1.3-.5.5-.8.6.2.8-3,2.4-3.3,1.4-.4.1-.5-.1-.8-.1-.4-.4-.1-.9-.5-1.1.2-1.6-.7-3-.9-4.3-.1-.6.2-1.8-.2-2.4.1-2.5.1-5,0-7.3,0-.1.2-.3.2-.3,0-.1-.2-.2-.2-.2,0-.6.6-1.3.2-1.8.5-1.7,1.1-4.3.2-5.5.3-1.5-1.9-4.9.6-6.4.3-1-.4-.9-.8-1.5-.3-.4-.2-1.1-.7-1.3-.4-2.4.3-5.8,2.4-7.4a2.937,2.937,0,0,1,1.4-3.6c.3.1.4.3.9.2,1.1-1,.9-3.6,1.9-4.7.2-.4,1-.2,1.6-.2,0,.1,0,.2.1.2a5.32,5.32,0,0,0-1.7,3.1c-.5.9-1.7,2.9-.6,3.5,1-.8,1-2.3,1.5-3.8.3-.1.3.2.6.1a9.721,9.721,0,0,0-.1,3.4c1.7,1.4.6-1.7,1.1-3,.8-.2.5.7.6,1.3s.4,1.3,0,1.6c.5,2.3-1.3,1.1-2.6.9-.6.4-1.3.6-1.7.9.2,1.3,2.1.5,3.4.8a2.765,2.765,0,0,0,1.1,1.3c.1,1.1-.7,2.4.2,3.1.9.1,1.1-.5,1.5-.9a.367.367,0,0,0,.3.1c.2,1.2-.8,1.6-1.5,2.4-1.2,1.4-1.6,3.9-3.9,4.4-.3-.1.1.5-.3.3-.1.4.2.4.1.8,1.5.2,2.1-.6,3.2-.8a37.914,37.914,0,0,0,2-3.4c.7,0,1-.5,1.5-.8a49.011,49.011,0,0,0,12.1-.2.764.764,0,0,0,.2.5c-1.2,3.7-5,.5-7.7,1.7Zm16.4,1.7c-.2.6-1.1.7-1.7.5.1-.2-.1-.3-.1-.5-2-.2-3.8-1.1-3.6,1,.4.2.6.7.9.9-.4,1.4-1.5,2.1-1.9,3.4a1.7,1.7,0,0,1-1,0c-.6-2.2-.3-4.2-.1-6.7.6.1.6-.6,1.1-.2-.5-.5,3-.6,2.6.2,1.2.4,2.5.9,3.8,1.4Zm16.1.4c-.7-.1-1.1-.5-1.7-.6a2.168,2.168,0,0,0-1-1.1c-.1-1.1-.3-3,.8-3.6a17.851,17.851,0,0,1,2.3.2c.3.2.4.6.9.6a3.977,3.977,0,0,1-1.3,4.5ZM341,237.5c.2,1.2,1.4,2,1.9,3a18.077,18.077,0,0,1,1,2.7,1.555,1.555,0,0,0,.6.8c.9,3.6,2.4,7.2,2.4,11.2-.2.5-2,.1-1.9.6-3,.2-6,.1-8.1.7q.15-.45-.3-.3c-.3,0,.2.6-.1.2-.2.1-.2.1-.1-.1-.7-.5-1.6.4-2-.1.1.1.2.2.3.2-2.1.1-4.3.6-6.8.1a.974.974,0,0,0-.3,1.3l.1.1c6.2.4,9.8-.1,16.5,0,.1-.4.7.1.9-.3.5.6,2.6.1,3.8.5a3.516,3.516,0,0,1-.1,3h-.9c-2.5,1.1-7.3.3-9.6.7-.1,0-.1.1,0,.1-.1.2-.5-.2-.8-.2-.8.8-1.6.2-3,.3.4-.5-.7.1-.2-.3-.4-.1-.5.2-.9.1-1,.7-3.6.8-5,.5a19.1,19.1,0,0,1-.6-3.3c-.3-.1-.9-.5-1.1-.3.4-.5-3.9-1.8-4.7-.6-1.2-.7-.1-2.6-.3-4,0-.3-.3-.6-.3-.9,0-.4.2-1,.2-1.5v-.6a25.721,25.721,0,0,0-.2-4.8c-.2-.9.1-2-.7-2.8.3-.5-.2-1.2-.2-1.5H320c-1.1,1.3.2,3.8-.1,5.7,1.1,3.1.1,7-.8,9.8-1.4.3-1.6-.7-2.9-.6-.5.4-1,1.1-.8,1.6.1.4,1.2.2.8.7,1.3.4,2.7,0,3.4.8-.7.4.5,2.3-1,2.3a4.472,4.472,0,0,0-2.2-1.3c-.3-1-1.2-1.3-1.9-1.8.2-.4-.1-.4-.3-.6.1-.6,0-1.5.1-2.1,0-.2-.3-.2-.3-.4-2.3-.1-1.1,1.7-1.6,2.9-.7.1-.9-.3-1.5-.3-.3-1.2-1.1-2.3-.3-3.9-.2-.2-.3-.5-.6-.7-2,.7-.5,3.6-.3,4.7-1.4.5-2-1.8-1.7-2.8a.693.693,0,0,0-1-.3c-.1,1.1,0,1.4-.1,2.3H306a5.918,5.918,0,0,0-.5-1.9.844.844,0,0,0-.7-.2c0-.6-.7-.5-1-.8-1.1,1.1-.5,3.6-.4,4.4-.4.5-.7-.3-1.5-.1,0-.2.3,0,.4-.2-1.9,0-4.7-.5-5.7.1-1.1,0-3.4.4-4.4.1l.1-.2a6.684,6.684,0,0,1-4.4.3c.4-1.3.3-3.7,1.5-4.3.5,0,.7.3,1.3.2,0,.5.7.8,1.4.9.4,0-.3-.3.1-.3.4-.1.2.2.1.3.3,0,1.1,0,.7-.2,1.8-.2,4,0,5.7-.3,1.1-.7,2.9-.8,3.4-2,.4-3.3.8-5.6,1.4-9a.52.52,0,0,0-.2-.4c.9-1.2-1.3-2.3-.1-3.2,1.2,0,1.4,1,2.6,1-.1.3.6.6,1.1.6-.2.5,1.3.3,1,.9,1.1,0,2.1.1,3.2.2.2.9,3.3-.1,3.8.9a3.694,3.694,0,0,1,1.4-.7c.1-.1-.2-.1-.2-.1.2-.3,2.4-1.5,3.1-2.2.2-.2,0-.6.7-.6.9-1.9,2.8-3.6,3.9-5.7.4-.1.1.4.5.2.8,2.7.5,5,.7,7.9,0,.4.3.8.2,1.1-.1.6,0,2.1,0,3.1,0,.3.2.6.2.9,0,.1-.2.2-.2.2.1.8.4,1.5.5,2.2,0,.4-.3,1-.2,1.5.1,1.1,0,2,0,3.1a6.108,6.108,0,0,0,.3,1.3,1.554,1.554,0,0,0,1.9-1.3v-.2c.3-2.2-.7-6.1-.1-7.9,0-1.6-.8-3-.9-4.4a28.282,28.282,0,0,0-.3-4.1c-.1-.4-.5-.8-.6-1.2-.3-1.4-.5-2.8-.7-4.1a4.924,4.924,0,0,1,.2-2.4c1-.7,1-2.5,1.7-3.2a15.408,15.408,0,0,1,1.9.2c.2.1-.9.2.3.2a3.079,3.079,0,0,1,1.9.3c.4.3.7.9,1.1,1,.3.1,1.1.1,1.3.3a3.6,3.6,0,0,0,2.1,1.1c0,.1-.1.1-.1.2a3.178,3.178,0,0,0,.9.3c0,.5.4.5.8.6,1.4,1.8,2,3.3,3.8,5.1Z" fill="#bababa" stroke="#bababa" stroke-linecap="round" stroke-linejoin="round" stroke-width="0.652"/>
      <path id="Tracé_793" d="M322,297.6c-.1-.9-.8-1.1-1.6-1.3.1-.4-.5-.6-.3-1-.6.2-.6,0-1.1-.1.2-.4-.2-.6-.3-.9-.3,0-.4.2-.8.1-.1-.4-1-.8-1.4-.3-.5-.7-1.9-.6-2.5-1.3.1-.5.4-.8.3-1.1-1.9-1.5-1.8-3.6-1.5-6.4h.6a8.015,8.015,0,0,0,1.4,3.9c.6,0,1.4.2,1.5-.3-.7-1.1-.8-2.4-1.6-3.3-.1-.8-.2-1.6-1.3-1.8-.3-.5-.2-.9-.5-1.2-1.4.4-1.6,1.3-1.6,2.7-.6.2-.8.8-.2,1.1,0,.3-.2.4-.2.6-.5.1-.4-.2-.8-.2.2-.3,0-1.2-.6-1.1-.9.9.5,2.6-.9,3.2.1-.3-.2-.2-.4-.3a1.765,1.765,0,0,0-.8.9c-.7-.1-.4-.5-.7-1-.5,0-.3.6-.8.6-.4-.5.1-1.6-.5-1.9-2.1,1.3-1.3,3.7-1.4,5.8.2.3.9.1.8.5.2-.2.4-.3,1-.2a2.917,2.917,0,0,1,.1,1.6c.4,1,1.3,1.6,1.6,2.6.2.7-.1,1.7.9,2,1-.6.4-2.1.6-2.7a4.441,4.441,0,0,0,1.1-.8c.4-1.8.9-2.7.3-4.1.3-.2.4-.5.7-.6.9.2.9,1.3,1.4,1.9,1.8.6,2.7,3.1,4.8,2.5a17.772,17.772,0,0,1,2.7,1.7c0,.2,0,.3-.1.3.1.2.4.2.6.2.1.7.7.9,1.1,1.3.4,1.2,1.5,2.1,1.5,2.7a7,7,0,0,1,1.4,3.6,2.842,2.842,0,0,1,.4,1.2l1.4-2v-.2A15.554,15.554,0,0,0,322,297.6Z" fill="#bababa" stroke="#bababa" stroke-linecap="round" stroke-linejoin="round" stroke-width="0.652"/>
      <path id="Tracé_794" d="M289.2,210.4c.5,1-.9,1.7-1.6,2.5-.1,1.5-1.4,2.6-2.3,4.1h-.7c-.3-.7.5-1.3,0-1.9-1.3.6-1.1,2.3-1.1,3.5-.5.7-.4,2.1-.7,3a1.8,1.8,0,0,1-.6.9c-.1.6-.7,1.7-2.2,3.6-.1.1-.1.3-.2.4-.1.2-.3.3-.5.5h0c-.2.2-.3.4-.5.5,0,0-.1.1,0,.1-.1,0-.1.1-.2.1a18.883,18.883,0,0,1-2,2,10.625,10.625,0,0,1-1.1.9c-.2.2-.4.3-.6.5a1.991,1.991,0,0,1-1.2.8,15.5,15.5,0,0,1-6.1,2.2.1.1,0,0,1,.1.1,3.3,3.3,0,0,1-1.4,0h-.6a3.553,3.553,0,0,1-1,.2c-.4-.1-.3-.4-.6-.4h-.2c0,.3-.7.5-1.2.7.3.1-.3.1-.2.4,1,2.2,6.3,1.1,8.3.1.8.1,2.4-.1,2.1-.6,1.6-.2,1.9-1.6,3.6-1.8.1-.6,1-1.1,2.1-1.4a5.07,5.07,0,0,1,2.5-2.5,1.457,1.457,0,0,1,.7-1.3c.1-.5.2-1.4,1.4-1.3.5-1.6,1.9-3.1,2.6-4.6h.3c0-.5.2-.5.2-1.1.2-.1.3-.2.5-.3a15.689,15.689,0,0,1,3-6.4,3.1,3.1,0,0,1,.9-1.8c-.3-.6.2-1,.2-1.6C290.4,210.3,289.4,209.9,289.2,210.4Z" fill="#bababa" stroke="#bababa" stroke-linecap="round" stroke-linejoin="round" stroke-width="0.652"/>
    </g>
    <g id="Groupe_41" transform="translate(23.923 10.5)">
      <path id="Tracé_795" d="M288.3,388.4l-30.5-16.1-34.4.1L203.9,344l-30.5-15.9-4-34.2-19.6-28.3,12.3-32.2-4.3-34.2,25.8-22.7,12.1-32.2,33.4-8.1,25.7-22.9,33.4,8.3,33.4-8.3,25.7,22.9,33.4,8.1,12.1,32.2,25.8,22.7-4.3,34.2,12.3,32.2-19.7,28.3-4,34.2L372.6,344l-19.5,28.4-34.4-.1Zm-29.5-20.2,29.4,15.6,29.4-15.6,33.3.1,18.8-27.5,29.5-15.4,3.9-33,19-27.3L410.3,234l4.1-33-25-22-11.7-31.2-32.3-7.9-24.9-22.1-32.3,8.1-32.3-8.1-24.8,22.1-32.3,7.9L187,179l-25,22,4.1,33-11.9,31.1,19,27.3,3.9,33,29.5,15.4,18.8,27.4Z" fill="#bababa" stroke="#bababa" stroke-width="1"/>
    </g>
  </g>
</svg>
